<svg width="33" height="35" viewBox="0 0 33 35" fill="none" xmlns="http://www.w3.org/2000/svg">
<path d="M1.04424 17.7122C1.37122 17.6782 1.69974 17.7603 1.97224 17.9442L16.1262 32.0982L30.2802 17.9442C30.3849 17.8342 30.5109 17.7466 30.6505 17.6868C30.7901 17.6269 30.9404 17.5961 31.0922 17.5961C31.2441 17.5961 31.3944 17.6269 31.534 17.6868C31.6736 17.7466 31.7995 17.8342 31.9042 17.9442C32.1052 18.1582 32.2353 18.4289 32.277 18.7194C32.3187 19.01 32.2699 19.3064 32.1372 19.5682L17.9832 33.7182C17.4582 34.1496 16.8054 34.3957 16.1262 34.4182C15.821 34.4263 15.5176 34.3678 15.2372 34.2469C14.9568 34.1261 14.706 33.9457 14.5022 33.7182L0.348238 19.5682C0.238228 19.4635 0.150642 19.3375 0.0907936 19.198C0.0309448 19.0584 8.7738e-05 18.9081 8.7738e-05 18.7562C8.7738e-05 18.6043 0.0309448 18.4541 0.0907936 18.3145C0.150642 18.1749 0.238228 18.0489 0.348238 17.9442C0.348238 17.7122 0.812237 17.7122 1.04424 17.7122Z" fill="#192CD1"/>
<path d="M16.144 34.418V0" stroke="#192CD1" stroke-width="3"/>
</svg>
