<svg width="548" height="724" viewBox="0 0 548 724" fill="none" xmlns="http://www.w3.org/2000/svg">
<path d="M326.16 501.599L471.856 577.73C429.81 658.196 330.495 689.341 250.029 647.295C224.454 633.932 202.848 614.071 187.381 589.71L326.16 501.599Z" fill="#7F72A4" stroke="white"/>
<path d="M326.16 501.6L187.381 589.711C138.719 513.066 161.404 411.483 238.049 362.821C314.695 314.159 416.277 336.844 464.94 413.49C496.419 463.071 499.055 525.679 471.856 577.732L326.16 501.6Z" fill="#6976EF" stroke="white"/>
<path fill-rule="evenodd" clip-rule="evenodd" d="M292.178 119.167C299.752 110.276 304.879 99.3794 304.023 87.1697C301.554 51.99 252.583 59.7291 243.057 77.4848C233.531 95.2405 234.663 140.279 246.974 143.453C251.884 144.718 262.343 141.618 272.989 135.202L266.307 182.473H305.76L292.178 119.167Z" fill="#B28B67"/>
<path fill-rule="evenodd" clip-rule="evenodd" d="M265.545 57.0182C270.745 56.1655 284.745 55.5793 287.327 55.5796C288.977 55.5796 290.765 55.9566 291.743 54.4416C292.543 53.2009 292.25 51.1026 292.489 49.6629C292.766 47.9904 293.16 46.3395 293.558 44.6927C294.692 40.0068 296.407 35.5487 298.806 31.3631C303.307 23.5105 309.901 17.3595 318.226 13.7802C327.42 9.82818 337.823 8.92324 347.711 9.72485C358.294 10.5825 367.873 14.0758 377.864 17.3633C387.385 20.4959 397.358 21.729 407.316 20.1992C417.349 18.658 424.93 13.2201 433.393 8.0588C442.057 2.77488 451.957 -0.680999 462.199 0.113425C471.76 0.85524 480.571 4.80276 488.477 10.0761C495.873 15.0099 501.976 20.9459 505.422 29.3005C509.129 38.2874 509.125 48.152 503.03 56.0944C494.194 67.6069 477.792 70.584 464.146 70.288C456.253 70.1173 448.501 68.6765 441.049 66.0555C431.111 62.5599 422.523 56.6352 413.225 51.8282C408.862 49.5724 404.352 47.7198 399.625 46.3853C395.037 45.0898 390.519 44.4955 386.365 47.2668C381.972 50.1984 378.034 53.0783 373.008 54.9135C368.186 56.6742 363.078 57.659 357.94 57.6192C347.945 57.542 338.091 54.4275 328.383 52.3414C320.466 50.6405 311.995 48.9453 303.924 50.5803C300.556 51.2627 295.636 52.6714 294.42 56.1716C314.894 59.8822 322.934 85.2023 317.163 103.79C314.048 113.822 295.322 125.55 288.041 120.275C283.429 116.934 286.229 112.548 288.041 109.652C291.512 104.106 292.699 96.9831 286.278 93.1223C280.738 89.7924 274.914 97.6999 274.804 97.6912C273.281 97.5713 260.126 90.1313 251.062 79.2744C242.12 79.8045 240.764 73.9087 242.899 69.087C245.034 64.2653 258.36 58.1972 265.545 57.0182Z" fill="#191847"/>
<path fill-rule="evenodd" clip-rule="evenodd" d="M83.0008 586.305C104.063 539.687 119.296 499.095 125.41 477.678C135.879 441.007 143.843 408.739 145.856 396.689C150.656 367.953 108.931 366.28 103.416 380.561C95.0688 402.176 80.4962 473.195 62.9861 580.465L83.0008 586.305ZM327.315 440.006C307.99 432.368 240.315 408.462 207.676 401.7C198.296 399.757 189.206 397.951 180.659 396.32C155.254 391.47 142.093 437.3 166.56 440.822C227.494 449.591 313.877 458.647 321.27 459.664C331.631 461.088 339.46 444.807 327.315 440.006Z" fill="#B28B67"/>
<path fill-rule="evenodd" clip-rule="evenodd" d="M165.066 383.709L269.596 330.498V318.914H257.164C156.037 344.683 104.361 361.197 102.136 368.457C102.112 368.535 102.091 368.613 102.071 368.692C102.02 368.758 101.97 368.826 101.92 368.893C81.8792 396.456 69.8765 531.018 65.937 541.094L104.341 546.823C119.031 492.348 166.032 454.399 164.783 389.155C165.12 387.241 165.205 385.426 165.066 383.709Z" fill="black" fill-opacity="0.81"/>
<path fill-rule="evenodd" clip-rule="evenodd" d="M260.911 415.312C270.475 413.397 279.283 411.688 286.819 410.367C335.5 401.828 349.696 375.77 341.303 318.914H251.609C236.957 323.123 160.814 355.054 121.308 372.038C95.1601 383.279 103.403 423.801 118.21 434.346C118.29 434.993 118.557 435.433 119.031 435.629C198.684 468.643 261.697 451.321 282.747 456.855L292.483 426.141L260.911 415.312Z" fill="#2F2E41"/>
<path fill-rule="evenodd" clip-rule="evenodd" d="M320.708 435.126C325.927 435.625 329.632 436.409 331.822 437.478C334.487 438.777 338.158 441.117 342.837 444.498C341.329 447.589 327.781 475.367 302.192 527.832C293.977 526.506 290.721 523.371 292.426 518.426C294.131 513.482 295.506 509.355 296.551 506.045L298.175 458.89C298.206 457.983 298.967 457.272 299.875 457.304C299.89 457.304 299.906 457.305 299.921 457.306L307.175 457.762C311.297 454.425 314.016 451.407 315.333 448.707C316.403 446.513 316.995 443.05 317.108 438.32L317.108 438.32C317.152 436.505 318.659 435.069 320.474 435.112C320.552 435.114 320.63 435.119 320.708 435.126Z" fill="#C53333"/>
<path fill-rule="evenodd" clip-rule="evenodd" d="M92.5861 577.664C94.4252 582.574 95.3447 586.247 95.3447 588.684C95.3447 591.649 94.8509 595.975 93.8632 601.662C90.4243 601.662 59.5185 601.662 1.14567 601.662C-1.26373 593.696 0.127118 589.396 5.31821 588.761C10.5093 588.126 14.8216 587.552 18.2552 587.04L61.3494 567.829C62.1786 567.459 63.1505 567.832 63.5202 568.661C63.5265 568.675 63.5326 568.689 63.5386 568.704L66.3086 575.423C71.1142 577.665 75.0192 578.787 78.0237 578.787C80.4648 578.787 83.836 577.801 88.1372 575.829L88.1372 575.829C89.7878 575.072 91.7393 575.797 92.496 577.448C92.5286 577.519 92.5586 577.591 92.5861 577.664Z" fill="#C53333"/>
<path fill-rule="evenodd" clip-rule="evenodd" d="M167.675 273.9L108.109 247.741C97.675 237.343 87.5991 229.441 77.8817 224.033C74.976 223.108 70.0118 222.828 75.3082 230.564C80.6047 238.3 85.8278 246.676 83.7115 249.387C81.5952 252.098 75.4647 249.106 73.0427 253.515C71.428 256.454 81.7619 259.97 104.044 264.063L148.655 298.266L167.675 273.9ZM408.489 281.105L374.803 287.789C408.68 350.922 426.847 384.383 429.305 388.171C434.836 396.694 429.676 412.314 427.77 420.54C439.729 423.324 435.012 405.324 450.146 409.083C463.96 412.513 475.672 421.316 488.553 409.443C490.136 407.984 491.295 403.421 485.896 401.081C472.445 395.251 452.571 384.334 449.349 380.096C444.954 374.316 431.334 341.319 408.489 281.105Z" fill="#B28B67"/>
<path fill-rule="evenodd" clip-rule="evenodd" d="M283.247 155.071L269.033 152.633C238.071 182.666 225.437 254.822 204.803 264.373C185.295 273.403 157.641 264.665 124.77 252.866L114.703 275.357C144.57 307.669 208.198 334.968 233.989 319.384C275.223 294.468 284.742 205.475 283.247 155.071Z" fill="#B2AAC8"/>
<path fill-rule="evenodd" clip-rule="evenodd" d="M345.213 333.709C288.217 333.709 246.292 333.709 219.438 333.709C213.69 333.709 214.773 325.41 215.604 321.223C225.193 272.892 262.622 220.794 262.622 151.997L298.902 146.308C328.91 194.569 339.287 253.989 345.213 333.709Z" fill="#DDE3E9"/>
<path fill-rule="evenodd" clip-rule="evenodd" d="M357.758 284.776C383.398 331.026 404.95 364.324 422.414 384.669L448.777 379.506C431.795 274.186 382.617 196.453 301.243 146.308H294.695L286.878 146.308C254.309 257.33 245.33 331.304 259.942 368.231H373.159C371.368 341.211 365.625 312.637 357.758 284.776H357.758Z" fill="#B2AAC8"/>
</svg>
