<svg width="726" height="464" viewBox="0 0 726 464" fill="none" xmlns="http://www.w3.org/2000/svg">
<path d="M68.422 449.258C71.6325 453.697 75.6123 457.493 80.1624 460.453C81.1301 461.083 82.1235 461.677 83.1342 462.226H106.917C106.633 461.641 106.356 461.047 106.088 460.453C98.714 444.486 96.4016 426.55 99.476 409.165C102.55 391.78 110.857 375.821 123.228 363.53C108.853 368.087 95.566 376.969 86.875 389.565C82.6521 395.699 79.6489 402.627 78.0372 409.953C76.6009 395.302 78.8836 380.519 84.6633 367.041C72.9921 376.782 63.9033 390.123 60.4393 405.14C56.9752 420.165 59.4889 436.839 68.422 449.258Z" fill="#F0F0F0"/>
<path d="M721.748 249.08H560.051C559.054 249.079 558.099 248.672 557.394 247.949C556.689 247.225 556.292 246.245 556.291 245.222V142.587C556.292 141.564 556.689 140.583 557.394 139.86C558.099 139.137 559.054 138.73 560.051 138.729H721.748C722.745 138.73 723.701 139.137 724.406 139.86C725.111 140.583 725.507 141.564 725.509 142.587V245.222C725.507 246.245 725.111 247.225 724.406 247.949C723.701 248.672 722.745 249.079 721.748 249.08Z" fill="white"/>
<path d="M721.748 249.08H560.051C559.054 249.079 558.099 248.672 557.394 247.949C556.689 247.225 556.292 246.245 556.291 245.222V142.587C556.292 141.564 556.689 140.583 557.394 139.86C558.099 139.137 559.054 138.73 560.051 138.729H721.748C722.745 138.73 723.701 139.137 724.406 139.86C725.111 140.583 725.507 141.564 725.509 142.587V245.222C725.507 246.245 725.111 247.225 724.406 247.949C723.701 248.672 722.745 249.079 721.748 249.08ZM560.051 140.272C559.453 140.273 558.88 140.517 558.457 140.951C558.034 141.385 557.796 141.973 557.795 142.587V245.222C557.796 245.835 558.034 246.424 558.457 246.858C558.88 247.292 559.453 247.536 560.051 247.537H721.748C722.346 247.536 722.92 247.292 723.343 246.858C723.766 246.424 724.004 245.835 724.004 245.222V142.587C724.004 141.973 723.766 141.385 723.343 140.951C722.92 140.517 722.346 140.273 721.748 140.272H560.051Z" fill="#3F3D56"/>
<path d="M689.785 173.005H592.015C591.118 173.005 590.257 172.639 589.622 171.988C588.987 171.336 588.631 170.453 588.631 169.532C588.631 168.611 588.987 167.728 589.622 167.077C590.257 166.425 591.118 166.06 592.015 166.06H689.785C690.683 166.06 691.544 166.425 692.178 167.077C692.813 167.728 693.17 168.611 693.17 169.532C693.17 170.453 692.813 171.336 692.178 171.988C691.544 172.639 690.683 173.005 689.785 173.005V173.005Z" fill="#CCCCCC"/>
<path d="M689.785 196.927H592.015C591.118 196.927 590.257 196.561 589.622 195.91C588.987 195.258 588.631 194.375 588.631 193.454C588.631 192.533 588.987 191.65 589.622 190.999C590.257 190.347 591.118 189.981 592.015 189.981H689.785C690.683 189.981 691.544 190.347 692.178 190.999C692.813 191.65 693.17 192.533 693.17 193.454C693.17 194.375 692.813 195.258 692.178 195.91C691.544 196.561 690.683 196.927 689.785 196.927V196.927Z" fill="#CCCCCC"/>
<path d="M681.075 234.855C687.755 234.855 693.17 229.299 693.17 222.445C693.17 215.591 687.755 210.035 681.075 210.035C674.395 210.035 668.98 215.591 668.98 222.445C668.98 229.299 674.395 234.855 681.075 234.855Z" fill="#192CD1"/>
<path d="M681.406 216.6V215.418H681.748V216.6C682.231 216.622 682.704 216.741 683.143 216.95C683.46 217.104 683.734 217.338 683.939 217.631C684.127 217.902 684.228 218.227 684.227 218.561C684.234 218.804 684.154 219.042 684.003 219.23C683.938 219.315 683.854 219.384 683.759 219.431C683.664 219.478 683.559 219.503 683.453 219.502C683.374 219.503 683.296 219.488 683.223 219.457C683.15 219.427 683.084 219.381 683.029 219.323C682.972 219.265 682.927 219.196 682.897 219.12C682.867 219.043 682.852 218.962 682.854 218.88C682.855 218.764 682.878 218.651 682.923 218.545L683.059 218.249C683.107 218.126 683.131 217.994 683.127 217.86C683.131 217.654 683.067 217.453 682.946 217.289C682.812 217.117 682.633 216.988 682.43 216.919C682.209 216.845 681.98 216.798 681.748 216.779V221.034L681.824 221.081C682.536 221.468 683.184 221.969 683.742 222.566C683.989 222.866 684.185 223.207 684.321 223.574C684.458 223.93 684.528 224.308 684.53 224.69C684.536 225.185 684.41 225.672 684.166 226.098C683.927 226.514 683.577 226.852 683.158 227.07C682.715 227.293 682.238 227.435 681.748 227.49V228.758H681.407V227.514C680.912 227.51 680.423 227.407 679.966 227.21C679.511 227.037 679.109 226.741 678.803 226.355C678.533 226.008 678.387 225.577 678.389 225.133C678.38 224.822 678.473 224.516 678.655 224.266C678.726 224.158 678.822 224.07 678.935 224.008C679.047 223.946 679.172 223.914 679.299 223.912C679.375 223.909 679.451 223.923 679.522 223.951C679.593 223.98 679.658 224.024 679.712 224.079C679.766 224.134 679.808 224.2 679.836 224.273C679.865 224.346 679.878 224.424 679.875 224.502C679.849 224.742 679.751 224.967 679.595 225.146C679.513 225.257 679.443 225.377 679.386 225.503C679.347 225.602 679.328 225.707 679.329 225.814C679.331 226.097 679.426 226.372 679.599 226.594C679.787 226.841 680.037 227.033 680.322 227.148C680.648 227.279 680.996 227.342 681.346 227.335H681.407V222.255L680.974 221.999C680.565 221.755 680.253 221.553 680.038 221.392C679.828 221.236 679.634 221.059 679.458 220.863C679.023 220.387 678.781 219.758 678.784 219.105C678.781 218.699 678.881 218.298 679.072 217.942C679.259 217.587 679.533 217.288 679.868 217.075C680.334 216.787 680.863 216.623 681.406 216.6V216.6ZM681.406 216.771C681.113 216.781 680.824 216.847 680.554 216.966C680.284 217.103 680.062 217.323 679.92 217.594C679.757 217.89 679.674 218.225 679.678 218.565C679.675 218.979 679.799 219.384 680.033 219.722C680.156 219.905 680.305 220.07 680.474 220.211C680.748 220.42 681.034 220.612 681.331 220.785L681.406 220.832V216.771ZM681.748 227.319C681.943 227.303 682.136 227.261 682.321 227.195C682.472 227.135 682.612 227.051 682.736 226.946C682.97 226.741 683.152 226.481 683.265 226.188C683.396 225.864 683.463 225.516 683.461 225.165C683.431 224.601 683.257 224.056 682.956 223.583C682.655 223.111 682.238 222.728 681.748 222.473V227.319Z" fill="white"/>
<path d="M611.6 180.379H449.903C448.906 180.378 447.95 179.971 447.245 179.247C446.54 178.524 446.144 177.543 446.143 176.52V73.8858C446.144 72.8628 446.54 71.8821 447.245 71.1588C447.95 70.4354 448.906 70.0285 449.903 70.0273H611.6C612.597 70.0285 613.553 70.4354 614.257 71.1588C614.962 71.8821 615.359 72.8628 615.36 73.8858V176.52C615.359 177.543 614.962 178.524 614.257 179.247C613.553 179.971 612.597 180.378 611.6 180.379V180.379Z" fill="white"/>
<path d="M611.6 180.379H449.903C448.906 180.378 447.95 179.971 447.245 179.247C446.54 178.524 446.144 177.543 446.143 176.52V73.8858C446.144 72.8628 446.54 71.8821 447.245 71.1588C447.95 70.4354 448.906 70.0285 449.903 70.0273H611.6C612.597 70.0285 613.553 70.4354 614.257 71.1588C614.962 71.8821 615.359 72.8628 615.36 73.8858V176.52C615.359 177.543 614.962 178.524 614.257 179.247C613.553 179.971 612.597 180.378 611.6 180.379V180.379ZM449.903 71.5707C449.305 71.5714 448.731 71.8155 448.308 72.2495C447.885 72.6835 447.647 73.272 447.647 73.8858V176.52C447.647 177.134 447.885 177.723 448.308 178.157C448.731 178.591 449.305 178.835 449.903 178.835H611.6C612.198 178.835 612.771 178.591 613.194 178.157C613.617 177.723 613.855 177.134 613.856 176.52V73.8858C613.855 73.272 613.617 72.6835 613.194 72.2495C612.771 71.8155 612.198 71.5714 611.6 71.5707H449.903Z" fill="#3F3D56"/>
<path d="M579.637 104.307H481.867C480.969 104.307 480.108 103.941 479.474 103.289C478.839 102.638 478.482 101.755 478.482 100.834C478.482 99.913 478.839 99.0297 479.474 98.3784C480.108 97.7272 480.969 97.3613 481.867 97.3613H579.637C580.535 97.3613 581.395 97.7272 582.03 98.3784C582.665 99.0297 583.021 99.913 583.021 100.834C583.021 101.755 582.665 102.638 582.03 103.289C581.395 103.941 580.535 104.307 579.637 104.307V104.307Z" fill="#CCCCCC"/>
<path d="M579.637 128.228H481.867C480.969 128.228 480.108 127.863 479.474 127.211C478.839 126.56 478.482 125.677 478.482 124.756C478.482 123.835 478.839 122.952 479.474 122.3C480.108 121.649 480.969 121.283 481.867 121.283H579.637C580.535 121.283 581.395 121.649 582.03 122.3C582.665 122.952 583.021 123.835 583.021 124.756C583.021 125.677 582.665 126.56 582.03 127.211C581.395 127.863 580.535 128.228 579.637 128.228V128.228Z" fill="#CCCCCC"/>
<path d="M570.926 166.157C577.606 166.157 583.021 160.601 583.021 153.747C583.021 146.893 577.606 141.337 570.926 141.337C564.246 141.337 558.831 146.893 558.831 153.747C558.831 160.601 564.246 166.157 570.926 166.157Z" fill="#192CD1"/>
<path d="M571.258 147.901V146.719H571.599V147.901C572.082 147.923 572.556 148.042 572.994 148.251C573.312 148.404 573.586 148.639 573.79 148.932C573.979 149.203 574.079 149.528 574.078 149.861C574.085 150.105 574.006 150.343 573.855 150.53C573.789 150.616 573.706 150.685 573.611 150.732C573.515 150.779 573.411 150.803 573.305 150.803C573.226 150.804 573.148 150.789 573.075 150.758C573.001 150.728 572.935 150.682 572.88 150.624C572.823 150.566 572.778 150.497 572.748 150.421C572.718 150.344 572.704 150.262 572.706 150.18C572.706 150.065 572.729 149.951 572.774 149.846L572.911 149.55C572.959 149.427 572.982 149.294 572.979 149.161C572.983 148.955 572.919 148.754 572.797 148.59C572.664 148.418 572.485 148.289 572.282 148.22C572.06 148.146 571.831 148.099 571.599 148.08V152.335L571.675 152.382C572.388 152.769 573.035 153.27 573.593 153.867C573.84 154.167 574.036 154.508 574.173 154.875C574.309 155.23 574.38 155.609 574.381 155.991C574.388 156.485 574.262 156.972 574.018 157.399C573.779 157.815 573.429 158.152 573.009 158.371C572.567 158.594 572.089 158.736 571.599 158.791V160.059H571.258V158.814C570.763 158.81 570.274 158.707 569.818 158.511C569.362 158.337 568.961 158.042 568.654 157.655C568.384 157.309 568.238 156.878 568.241 156.434C568.231 156.123 568.325 155.817 568.506 155.567C568.578 155.459 568.674 155.37 568.786 155.309C568.898 155.247 569.023 155.214 569.151 155.213C569.227 155.21 569.303 155.224 569.374 155.252C569.445 155.281 569.51 155.324 569.564 155.38C569.618 155.435 569.66 155.501 569.688 155.574C569.716 155.647 569.729 155.725 569.727 155.803C569.701 156.042 569.603 156.268 569.446 156.447C569.365 156.558 569.295 156.678 569.238 156.804C569.199 156.903 569.18 157.008 569.181 157.115C569.182 157.398 569.277 157.673 569.45 157.894C569.639 158.142 569.889 158.334 570.174 158.449C570.5 158.58 570.848 158.643 571.197 158.636H571.258V153.556L570.826 153.299C570.417 153.056 570.105 152.854 569.89 152.693C569.68 152.537 569.486 152.359 569.31 152.164C568.874 151.688 568.633 151.059 568.635 150.406C568.633 149.999 568.732 149.599 568.923 149.243C569.11 148.888 569.385 148.589 569.719 148.376C570.185 148.087 570.714 147.924 571.258 147.901V147.901ZM571.258 148.072C570.964 148.082 570.675 148.147 570.405 148.266C570.135 148.404 569.914 148.623 569.771 148.895C569.609 149.191 569.525 149.526 569.53 149.866C569.526 150.28 569.651 150.685 569.884 151.022C570.008 151.206 570.157 151.371 570.326 151.512C570.6 151.721 570.886 151.913 571.183 152.086L571.258 152.133V148.072ZM571.599 158.62C571.795 158.603 571.987 158.561 572.173 158.496C572.323 158.436 572.463 158.352 572.588 158.247C572.822 158.042 573.003 157.782 573.116 157.488C573.248 157.164 573.315 156.816 573.312 156.465C573.282 155.902 573.108 155.356 572.807 154.884C572.507 154.412 572.09 154.029 571.599 153.774V158.62Z" fill="white"/>
<path d="M276.404 165.065C274.995 164.96 273.582 165.174 272.262 165.691C270.943 166.208 269.75 167.015 268.767 168.056C267.785 169.098 267.037 170.347 266.576 171.717C266.115 173.087 265.952 174.544 266.099 175.985L235.014 190.938L250.229 200.498L277.416 184.832C279.759 184.418 281.873 183.136 283.357 181.23C284.841 179.323 285.591 176.924 285.467 174.488C285.342 172.051 284.351 169.746 282.68 168.009C281.01 166.273 278.777 165.225 276.404 165.065V165.065Z" fill="#FFB6B6"/>
<path d="M147.771 452.766L158.507 452.765L163.615 410.276L147.77 410.277L147.771 452.766Z" fill="#FFB6B6"/>
<path d="M145.032 449.169L166.175 449.168H166.175C169.749 449.168 173.176 450.625 175.702 453.217C178.229 455.81 179.649 459.326 179.649 462.993V463.442L145.033 463.443L145.032 449.169Z" fill="#C53333"/>
<path d="M202.552 452.766L213.287 452.765L218.395 410.276L202.55 410.277L202.552 452.766Z" fill="#FFB6B6"/>
<path d="M199.813 449.169L220.956 449.168H220.957C224.53 449.168 227.957 450.625 230.484 453.217C233.01 455.81 234.43 459.326 234.43 462.993V463.442L199.814 463.443L199.813 449.169Z" fill="#C53333"/>
<path d="M209.723 232.388L215.172 244.425L224.995 352.072L217.359 444.596H199.5L178.426 298.756L168.527 441.237L144.429 440.239L139.803 247.066L209.723 232.388Z" fill="#2F2E41"/>
<path d="M122.89 133.049L145.481 123.618L177.367 125.453L205.714 136.053L215.172 244.424C190.51 258.242 165.529 262.013 140.113 252.133L116.525 181.548L122.89 133.049Z" fill="#B2AAC8"/>
<path d="M196.895 138.918L206.919 136.053C206.919 136.053 214.502 130.994 216.997 146.032C219.492 161.07 232.328 184.46 232.328 184.46L254.304 172.444L264.478 195.242L229.774 216.812L193.228 179.028L196.895 138.918Z" fill="#B2AAC8"/>
<path d="M141.905 103.541C140.688 100.706 140.026 97.6536 139.959 94.5569C139.891 91.4601 140.419 88.38 141.511 85.4925C142.604 82.6049 144.24 79.9664 146.326 77.7276C148.412 75.4889 150.908 73.6936 153.671 72.4445C156.433 71.1953 159.408 70.5167 162.426 70.4473C165.444 70.378 168.446 70.9192 171.26 72.0402C174.074 73.1612 176.646 74.84 178.828 76.9807C181.01 79.1214 182.759 81.682 183.977 84.5165L184.108 84.8285C186.527 90.5721 186.623 97.0664 184.375 102.883C183.262 105.763 181.608 108.389 179.505 110.613C177.403 112.837 174.894 114.614 172.123 115.843C166.525 118.325 160.196 118.423 154.527 116.117C148.859 113.811 144.315 109.288 141.897 103.545L141.905 103.541Z" fill="#FFB6B6"/>
<path d="M173.115 81.9531C177.895 82.8429 185.292 85.9307 189.397 82.3083C187.37 79.8775 184.819 77.9635 181.948 76.7173C181.382 76.5247 180.858 76.221 180.406 75.8231C179.006 74.3718 180.087 71.871 179.447 69.9088C179.136 69.1917 178.667 68.5586 178.077 68.0593C177.487 67.56 176.791 67.2081 176.046 67.0315C174.621 66.594 173.128 66.523 171.729 65.9926C168.416 64.7152 166.061 61.0597 162.666 60.0664C159.708 59.1884 156.731 60.5529 154.178 62.1453C151.625 63.7377 149.1 65.6271 146.113 65.9293C143.881 66.1382 142.468 69.9051 140.227 70.0155C135.532 70.2499 135.793 67.0744 135.445 72.1359C135.245 75.1562 131.039 81.1649 131.107 84.2116C131.177 86.2079 130.832 88.1851 130.888 90.1876C131.014 94.0015 132.505 97.6341 135.076 100.392C137.213 102.648 139.994 104.169 141.793 106.74C142.729 108.105 143.378 109.698 144.468 110.933C145.557 112.168 147.402 112.912 148.618 112.03C149.834 111.148 149.856 109.24 150.46 107.788C150.83 106.898 151.462 106.148 152.268 105.645C153.073 105.142 154.012 104.91 154.953 104.981C155.93 105.112 156.852 105.521 157.615 106.16C158.378 106.799 158.952 107.644 159.273 108.6C158.704 105.391 157.203 102.385 156.632 99.1732C156.062 95.9618 156.805 92.1255 159.5 90.8716C160.658 90.3191 162.221 90.1707 162.686 88.8976C162.97 88.1308 162.71 87.2247 162.82 86.3954C163.412 82.3311 169.998 81.3255 173.115 81.9531Z" fill="#2F2E41"/>
<path d="M142.822 250.88C142.616 249.446 142.106 248.076 141.328 246.867C140.551 245.657 139.524 244.637 138.32 243.878C137.117 243.12 135.766 242.642 134.363 242.477C132.959 242.312 131.538 242.465 130.199 242.925L109.233 215.029L103.437 232.342L124.235 256.178C125.137 258.436 126.815 260.275 128.95 261.348C131.086 262.422 133.531 262.653 135.822 262C138.113 261.347 140.091 259.854 141.381 257.805C142.672 255.755 143.184 253.291 142.822 250.88V250.88Z" fill="#FFB6B6"/>
<path d="M130.132 138.31L122.89 133.049C122.89 133.049 106.323 132.075 103.913 146.032L73.5352 197.308L111.2 250.625L129.461 230.901L106.42 203.273L125.765 166.826L130.132 138.31Z" fill="#B2AAC8"/>
<path d="M306.562 146.436H306.182V135.757C306.182 134.945 306.026 134.141 305.724 133.392C305.421 132.642 304.977 131.96 304.418 131.386C303.858 130.813 303.194 130.357 302.464 130.047C301.733 129.736 300.949 129.576 300.158 129.576H278.109C277.318 129.576 276.534 129.736 275.803 130.047C275.073 130.357 274.409 130.813 273.849 131.386C273.29 131.96 272.846 132.642 272.543 133.392C272.241 134.141 272.085 134.945 272.085 135.757V194.342C272.085 195.154 272.241 195.958 272.543 196.708C272.846 197.458 273.29 198.139 273.849 198.713C274.409 199.287 275.073 199.742 275.803 200.053C276.534 200.363 277.318 200.523 278.109 200.523H300.158C300.949 200.523 301.733 200.363 302.464 200.053C303.194 199.742 303.858 199.287 304.418 198.713C304.977 198.139 305.421 197.458 305.724 196.708C306.026 195.958 306.182 195.154 306.182 194.342V154.037H306.562V146.436Z" fill="#3F3D56"/>
<path d="M300.401 131.184H297.523C297.656 131.517 297.706 131.878 297.67 132.236C297.635 132.593 297.514 132.937 297.318 133.235C297.123 133.533 296.859 133.778 296.549 133.947C296.24 134.116 295.895 134.205 295.545 134.205H282.912C282.562 134.205 282.217 134.116 281.908 133.947C281.598 133.778 281.334 133.533 281.139 133.235C280.943 132.936 280.822 132.593 280.787 132.236C280.751 131.878 280.801 131.517 280.934 131.184H278.245C277.052 131.184 275.908 131.67 275.065 132.535C274.221 133.401 273.747 134.575 273.747 135.799V194.299C273.747 195.523 274.221 196.697 275.065 197.563C275.908 198.428 277.052 198.915 278.245 198.915H300.401C301.595 198.915 302.739 198.428 303.582 197.563C304.426 196.697 304.9 195.523 304.9 194.299V135.799C304.9 134.575 304.426 133.401 303.582 132.535C302.739 131.67 301.595 131.184 300.401 131.184Z" fill="#192CD1"/>
<path d="M499.291 110.352H337.594C336.597 110.35 335.642 109.943 334.937 109.22C334.232 108.497 333.835 107.516 333.834 106.493V3.85845C333.835 2.83549 334.232 1.85475 334.937 1.13141C335.642 0.40806 336.597 0.00117071 337.594 0H499.291C500.288 0.00117072 501.244 0.40806 501.949 1.13141C502.654 1.85475 503.05 2.83549 503.051 3.85845V106.493C503.05 107.516 502.654 108.497 501.949 109.22C501.244 109.943 500.288 110.35 499.291 110.352V110.352Z" fill="white"/>
<path d="M499.291 110.352H337.594C336.597 110.35 335.642 109.943 334.937 109.22C334.232 108.497 333.835 107.516 333.834 106.493V3.85845C333.835 2.83549 334.232 1.85475 334.937 1.13141C335.642 0.40806 336.597 0.00117071 337.594 0H499.291C500.288 0.00117072 501.244 0.40806 501.949 1.13141C502.654 1.85475 503.05 2.83549 503.051 3.85845V106.493C503.05 107.516 502.654 108.497 501.949 109.22C501.244 109.943 500.288 110.35 499.291 110.352V110.352ZM337.594 1.54338C336.996 1.54405 336.423 1.78818 336 2.22219C335.577 2.65621 335.339 3.24467 335.338 3.85845V106.493C335.339 107.107 335.577 107.695 336 108.129C336.423 108.563 336.996 108.807 337.594 108.808H499.291C499.889 108.807 500.463 108.563 500.886 108.129C501.309 107.695 501.547 107.107 501.547 106.493V3.85845C501.547 3.24467 501.309 2.65621 500.886 2.22219C500.463 1.78818 499.889 1.54405 499.291 1.54338H337.594Z" fill="#3F3D56"/>
<path d="M467.328 34.2773H369.558C368.661 34.2773 367.8 33.9114 367.165 33.2602C366.53 32.6089 366.174 31.7256 366.174 30.8046C366.174 29.8836 366.53 29.0004 367.165 28.3491C367.8 27.6979 368.661 27.332 369.558 27.332H467.328C468.226 27.332 469.087 27.6979 469.721 28.3491C470.356 29.0004 470.713 29.8836 470.713 30.8046C470.713 31.7256 470.356 32.6089 469.721 33.2602C469.087 33.9114 468.226 34.2773 467.328 34.2773V34.2773Z" fill="#CCCCCC"/>
<path d="M467.328 58.1991H369.558C368.661 58.1991 367.8 57.8333 367.165 57.182C366.53 56.5308 366.174 55.6475 366.174 54.7265C366.174 53.8055 366.53 52.9222 367.165 52.271C367.8 51.6198 368.661 51.2539 369.558 51.2539H467.328C468.226 51.2539 469.087 51.6198 469.721 52.271C470.356 52.9222 470.713 53.8055 470.713 54.7265C470.713 55.6475 470.356 56.5308 469.721 57.182C469.087 57.8333 468.226 58.1991 467.328 58.1991Z" fill="#CCCCCC"/>
<path d="M458.618 96.1288C465.298 96.1288 470.713 90.5726 470.713 83.7187C470.713 76.8648 465.298 71.3086 458.618 71.3086C451.938 71.3086 446.523 76.8648 446.523 83.7187C446.523 90.5726 451.938 96.1288 458.618 96.1288Z" fill="#192CD1"/>
<path d="M458.95 77.8728V76.6904H459.292V77.8728C459.774 77.8943 460.248 78.0132 460.686 78.2228C461.004 78.376 461.278 78.6104 461.482 78.9036C461.671 79.1748 461.772 79.4999 461.771 79.833C461.778 80.0765 461.698 80.3143 461.547 80.502C461.482 80.5875 461.398 80.6565 461.303 80.7037C461.208 80.7509 461.103 80.775 460.997 80.7742C460.918 80.7758 460.84 80.7607 460.767 80.73C460.694 80.6992 460.628 80.6534 460.573 80.5953C460.516 80.5376 460.471 80.4684 460.441 80.3922C460.411 80.3159 460.396 80.2342 460.398 80.152C460.399 80.0369 460.422 79.923 460.467 79.8175L460.603 79.5219C460.651 79.3983 460.675 79.266 460.671 79.1329C460.675 78.9268 460.611 78.7254 460.489 78.5613C460.356 78.3893 460.177 78.2608 459.974 78.1917C459.753 78.1173 459.524 78.0703 459.292 78.0517V82.3065L459.367 82.3532C460.08 82.7402 460.728 83.2418 461.285 83.839C461.533 84.1389 461.729 84.4795 461.865 84.8464C462.002 85.202 462.072 85.5804 462.074 85.9625C462.08 86.4571 461.954 86.944 461.71 87.3704C461.471 87.7867 461.121 88.1241 460.702 88.3428C460.259 88.5655 459.782 88.7077 459.292 88.7628V90.0307H458.951V88.7862C458.456 88.7821 457.966 88.6791 457.51 88.4828C457.055 88.3091 456.653 88.0137 456.346 87.6272C456.077 87.2806 455.931 86.8495 455.933 86.4059C455.924 86.0943 456.017 85.7886 456.199 85.5385C456.27 85.4306 456.366 85.3421 456.479 85.2805C456.591 85.2189 456.716 85.186 456.843 85.1847C456.919 85.1819 456.995 85.1953 457.066 85.224C457.137 85.2526 457.202 85.296 457.256 85.3513C457.31 85.4066 457.352 85.4727 457.38 85.5455C457.408 85.6183 457.422 85.6963 457.419 85.7746C457.393 86.0141 457.295 86.2393 457.139 86.4187C457.057 86.5298 456.987 86.6495 456.93 86.7758C456.891 86.8743 456.872 86.9799 456.873 87.0862C456.875 87.3699 456.97 87.6447 457.142 87.866C457.331 88.1139 457.581 88.3055 457.866 88.4208C458.192 88.5513 458.54 88.6146 458.89 88.6073H458.95V83.5278L458.518 83.2711C458.109 83.0275 457.797 82.8252 457.582 82.6644C457.372 82.5082 457.178 82.331 457.002 82.1354C456.567 81.6594 456.325 81.0304 456.327 80.3775C456.325 79.971 456.425 79.5708 456.616 79.2147C456.803 78.8594 457.077 78.5603 457.412 78.3473C457.878 78.059 458.407 77.8958 458.95 77.8728ZM458.95 78.0439C458.657 78.0533 458.368 78.1191 458.098 78.2381C457.828 78.3752 457.606 78.595 457.463 78.8669C457.301 79.1628 457.218 79.4976 457.222 79.8372C457.219 80.2515 457.343 80.6563 457.577 80.994C457.7 81.1779 457.849 81.3426 458.018 81.4834C458.292 81.6929 458.578 81.8847 458.875 82.0577L458.95 82.1044V78.0439ZM459.292 88.5917C459.487 88.575 459.68 88.5331 459.865 88.4673C460.016 88.4075 460.156 88.3235 460.28 88.2184C460.514 88.0138 460.696 87.7534 460.809 87.4601C460.94 87.136 461.007 86.7881 461.005 86.437C460.975 85.8736 460.801 85.3281 460.5 84.8557C460.199 84.3832 459.782 84.0004 459.292 83.7456V88.5917Z" fill="white"/>
<path d="M330.013 464H0.86391C0.634787 464 0.415047 463.907 0.253033 463.741C0.0910181 463.575 0 463.349 0 463.114C0 462.879 0.0910181 462.653 0.253033 462.487C0.415047 462.321 0.634787 462.228 0.86391 462.228H330.013C330.243 462.228 330.462 462.321 330.624 462.487C330.786 462.653 330.877 462.879 330.877 463.114C330.877 463.349 330.786 463.575 330.624 463.741C330.462 463.907 330.243 464 330.013 464Z" fill="#CACACA"/>
</svg>
