<svg width="18" height="34" viewBox="0 0 18 34" fill="none" xmlns="http://www.w3.org/2000/svg">
<path d="M0.794249 32.0998C0.760229 31.7728 0.842358 31.4443 1.02625 31.1718L15.1802 17.0178L1.02625 2.8638C0.916237 2.7591 0.828651 2.63313 0.768805 2.49355C0.708958 2.35397 0.678099 2.20368 0.678099 2.0518C0.678099 1.89993 0.708958 1.74964 0.768805 1.61006C0.828651 1.47048 0.916237 1.34451 1.02625 1.2398C1.24024 1.03887 1.51091 0.908713 1.80148 0.867025C2.09204 0.825337 2.3884 0.874142 2.65025 1.0068L16.8002 15.1608C17.2317 15.6858 17.4777 16.3386 17.5002 17.0178C17.5083 17.3231 17.4498 17.6264 17.329 17.9068C17.2081 18.1873 17.0277 18.438 16.8002 18.6418L2.65025 32.7958C2.54554 32.9058 2.41957 32.9934 2.27999 33.0532C2.14041 33.1131 1.99012 33.144 1.83825 33.144C1.68637 33.144 1.53609 33.1131 1.3965 33.0532C1.25692 32.9934 1.13095 32.9058 1.02625 32.7958C0.794247 32.7958 0.794249 32.3318 0.794249 32.0998Z" fill="#192CD1"/>
</svg>
