<?xml version="1.0" encoding="UTF-8"?>
<svg width="160px" height="38px" viewBox="0 0 160 38" version="1.1" xmlns="http://www.w3.org/2000/svg" xmlns:xlink="http://www.w3.org/1999/xlink">
    <!-- Generator: Sketch 52.6 (67491) - http://www.bohemiancoding.com/sketch -->
    <title>Group Copy</title>
    <desc>Created with Sketch.</desc>
    <g id="Page-1" stroke="none" stroke-width="1" fill="none" fill-rule="evenodd">
        <g id="Artboard-Copy" transform="translate(-110.000000, -89.000000)">
            <g id="Group-Copy" transform="translate(110.000000, 89.000000)">
                <path d="M17.0017241,8.77931034 L15.887931,11.4327586 C14.730454,11.0614924 13.8732786,10.8158052 13.3163793,10.6956897 C12.75948,10.5755741 12.0333378,10.5155172 11.137931,10.5155172 C9.87125803,10.5155172 8.73017749,10.8703988 7.71465517,11.5801724 C6.69913285,12.2899461 5.89655467,13.2945337 5.30689655,14.5939655 C4.71723843,15.8933973 4.42241379,17.3948191 4.42241379,19.0982759 C4.42241379,20.6488583 4.67902042,22.0574649 5.19224138,23.3241379 C5.70546234,24.5908109 6.44798365,25.6008583 7.41982759,26.3543103 C8.39167153,27.1077624 9.5436715,27.4844828 10.8758621,27.4844828 C12.5793189,27.4844828 14.2063141,27.1459804 15.7568966,26.4689655 L17.1655172,29.2206897 C16.3793064,29.6137951 15.4020173,29.941378 14.2336207,30.2034483 C13.065224,30.4655186 12.0005795,30.5965517 11.0396552,30.5965517 C8.81205783,30.5965517 6.91207683,30.0887982 5.33965517,29.0732759 C3.76723352,28.0577535 2.58247525,26.6819052 1.78534483,24.9456897 C0.988214405,23.2094741 0.589655172,21.2712751 0.589655172,19.1310345 C0.589655172,16.8815979 1.02643241,14.8669629 1.9,13.087069 C2.77356759,11.307175 4.01292301,9.91494755 5.61810345,8.91034483 C7.22328389,7.9057421 9.09596631,7.40344828 11.2362069,7.40344828 C12.0224177,7.40344828 12.9833277,7.52356202 14.1189655,7.7637931 C15.2546034,8.00402419 16.2155133,8.34252655 17.0017241,8.77931034 Z M22.8,31.5465517 L23.6189655,29.3844828 L17.9844828,14.8396552 L21.5551724,13.6603448 L25.6172414,24.7982759 L29.45,14.25 L33.3155172,14.25 L26.2396552,32.6275862 C25.8028714,33.7850633 25.0221321,34.7896509 23.8974138,35.6413793 C22.7726955,36.4931077 21.5333401,37.0718376 20.1793103,37.3775862 L18.9017241,34.4293103 C19.9718444,33.9706874 20.8290198,33.5393698 21.4732759,33.1353448 C22.117532,32.7313198 22.5597689,32.2017274 22.8,31.5465517 Z M42.5862069,13.8241379 C44.2023069,13.8241379 45.6109135,14.1681 46.812069,14.8560345 C48.0132244,15.543969 48.9359163,16.521258 49.5801724,17.787931 C50.2244285,19.054604 50.5465517,20.5396467 50.5465517,22.2431034 C50.5465517,23.8810427 50.2189688,25.3278673 49.5637931,26.5836207 C48.9086174,27.8393741 47.9750061,28.8166632 46.762931,29.5155172 C45.550856,30.2143713 44.1367897,30.5637931 42.5206897,30.5637931 C41.9310315,30.5637931 41.270406,30.4327599 40.5387931,30.1706897 C39.8071802,29.9086194 39.1247158,29.5591976 38.4913793,29.1224138 L37.737931,30.137931 L35.8051724,30.137931 L35.8051724,7.37068966 L39.4741379,7.01034483 L39.4741379,14.6758621 C40.5442582,14.1080431 41.5816042,13.8241379 42.5862069,13.8241379 Z M42.5206897,27.3862069 C43.831041,27.3862069 44.8629273,26.9057519 45.6163793,25.9448276 C46.3698314,24.9839032 46.7465517,23.7500075 46.7465517,22.2431034 C46.7465517,20.6706818 46.3752911,19.3985681 45.6327586,18.4267241 C44.8902262,17.4548802 43.8528802,16.9689655 42.5206897,16.9689655 C41.9528707,16.9689655 41.4232783,17.056321 40.9318965,17.2310345 C40.4405148,17.405748 39.9546001,17.6678143 39.4741379,18.0172414 L39.4741379,26.4034483 C40.3695447,27.058624 41.3850518,27.3862069 42.5206897,27.3862069 Z M67.1551724,22.0793103 L67.1551724,23.1603448 L56.1482759,23.1603448 C56.4758637,25.9994395 58.1683755,27.4189655 61.2258621,27.4189655 C62.0775905,27.4189655 62.8364909,27.3043115 63.5025862,27.075 C64.1686815,26.8456885 64.9712597,26.490807 65.9103448,26.0103448 L67.0241379,28.6965517 C65.2551636,29.9195463 63.3005854,30.5310345 61.1603448,30.5310345 C58.2775718,30.5310345 56.0773064,29.7830535 54.5594828,28.287069 C53.0416591,26.7910845 52.2827586,24.7546106 52.2827586,22.1775862 C52.2827586,20.5178078 52.5939624,19.0600637 53.2163793,17.8043103 C53.8387962,16.5485569 54.7341896,15.5712679 55.9025862,14.8724138 C57.0709829,14.1735597 58.4522909,13.8241379 60.0465517,13.8241379 C62.383345,13.8241379 64.1522928,14.5994175 65.3534483,16.15 C66.5546037,17.7005825 67.1551724,19.6769995 67.1551724,22.0793103 Z M56.2137931,20.7034483 L63.6172414,20.7034483 C63.4206887,19.4804537 63.0166697,18.552302 62.4051724,17.9189655 C61.7936751,17.285629 60.9747178,16.9689655 59.9482759,16.9689655 C58.8999948,16.9689655 58.0537389,17.2965484 57.4094828,17.9517241 C56.7652267,18.6068998 56.3666674,19.524132 56.2137931,20.7034483 Z M73.5431034,20.0155172 L73.5431034,30.137931 L69.8741379,30.137931 L69.8741379,14.25 L71.8396552,14.25 L73.0517241,16.8706897 C73.837935,16.215514 74.738788,15.6149453 75.7543103,15.0689655 C76.7698327,14.5229858 77.6597663,14.25 78.4241379,14.25 L79.1775862,17.1982759 C78.3913754,17.1982759 77.4741432,17.4712616 76.4258621,18.0172414 C75.377581,18.5632211 74.416671,19.2293064 73.5431034,20.0155172 Z M85.9913793,22.1448276 L85.9913793,30.137931 L82.3224138,30.137931 L82.3224138,7.86206897 L88.9724138,7.86206897 C91.5494382,7.86206897 93.6295898,8.43533909 95.212931,9.58189655 C96.7962723,10.728454 97.587931,12.5028616 97.587931,14.9051724 C97.587931,16.4994333 97.1784524,17.8425233 96.3594828,18.9344828 C95.5405131,20.0264422 94.4594895,20.8344801 93.1163793,21.3586207 C91.7732691,21.8827612 90.2936862,22.1448276 88.6775862,22.1448276 L85.9913793,22.1448276 Z M88.9068965,10.9413793 L85.9913793,10.9413793 L85.9913793,19.0982759 L88.8413793,19.0982759 C90.304605,19.0982759 91.4675244,18.7706929 92.3301724,18.1155172 C93.1928204,17.4603416 93.6568962,16.4557539 93.7224138,15.1017241 C93.7224138,13.5948201 93.3129351,12.5247158 92.4939655,11.8913793 C91.6749959,11.2580428 90.4793182,10.9413793 88.9068965,10.9413793 Z M101.813793,18.2465517 L100.798276,15.2327586 C101.366095,14.8614924 102.245109,14.5339095 103.435345,14.25 C104.625581,13.9660905 105.59195,13.8241379 106.334483,13.8241379 C107.557477,13.8241379 108.676719,14.0752848 109.692241,14.5775862 C110.707764,15.0798876 111.510342,15.762352 112.1,16.625 C112.689658,17.487648 112.984483,18.4540176 112.984483,19.5241379 L112.984483,30.137931 L110.527586,30.137931 L109.97069,28.5327586 C109.359192,29.1224167 108.660349,29.6028717 107.874138,29.9741379 C107.087927,30.3454042 106.301728,30.5310345 105.515517,30.5310345 C103.681025,30.5310345 102.288798,30.0724184 101.338793,29.1551724 C100.388788,28.2379264 99.9137931,27.0149502 99.9137931,25.4862069 C99.9137931,23.8919461 100.454305,22.6580503 101.535345,21.7844828 C102.616385,20.9109152 104.04137,20.4741379 105.810345,20.4741379 L109.282759,20.4741379 C109.23908,18.2683798 108.27817,17.1655172 106.4,17.1655172 C104.958613,17.1655172 103.429893,17.5258585 101.813793,18.2465517 Z M103.124138,25.4862069 C103.124138,26.0540258 103.331607,26.5508599 103.746552,26.9767241 C104.161496,27.4025883 104.729307,27.6155172 105.45,27.6155172 C106.127015,27.6155172 106.80402,27.4517258 107.481034,27.1241379 C108.158049,26.7965501 108.769537,26.3488534 109.315517,25.7810345 L109.315517,22.9310345 L105.744828,22.9310345 C104.936778,22.9310345 104.297991,23.1767217 103.828448,23.6681034 C103.358906,24.1594852 103.124138,24.7655136 103.124138,25.4862069 Z M119.831034,31.5465517 L120.65,29.3844828 L115.015517,14.8396552 L118.586207,13.6603448 L122.648276,24.7982759 L126.481034,14.25 L130.346552,14.25 L123.27069,32.6275862 C122.833906,33.7850633 122.053167,34.7896509 120.928448,35.6413793 C119.80373,36.4931077 118.564375,37.0718376 117.210345,37.3775862 L115.932759,34.4293103 C117.002879,33.9706874 117.860054,33.5393698 118.50431,33.1353448 C119.148566,32.7313198 119.590803,32.2017274 119.831034,31.5465517 Z" id="CyberPay" fill="#FFFFFF"></path>
                <g id="Group-39-Copy" transform="translate(136.275862, 0.000000)">
                    <g id="Group-38">
                        <path d="M4.52068966,22.2758621 C9.69655172,27.3206897 18.0827586,27.3206897 23.1931034,22.2758621 L13.8896552,13.1034483 L4.52068966,22.2758621 Z" id="Fill-28" fill="#2F8ED6"></path>
                        <path d="M4.52068966,3.93103448 C-0.655172414,8.97586207 -0.655172414,17.2310345 4.52068966,22.2758621 L13.8896552,13.1034483 L4.52068966,3.93103448 Z" id="Fill-36" fill="#FFFFFF"></path>
                        <path d="M23.1931034,3.93103448 C18.0827586,-1.1137931 9.69655172,-1.1137931 4.52068966,3.93103448 L13.8896552,13.1034483 L23.1931034,3.93103448 Z" id="Fill-31" fill="#DD0A35"></path>
                    </g>
                </g>
            </g>
        </g>
    </g>
</svg>