<svg width="576" height="415" viewBox="0 0 576 415" fill="none" xmlns="http://www.w3.org/2000/svg">
<path fill-rule="evenodd" clip-rule="evenodd" d="M86.1505 328.112H185.518V338.141H89.3809L113.51 415H104.442L41.9854 220.288L50.3128 216.853L86.1505 328.112Z" fill="black"/>
<path fill-rule="evenodd" clip-rule="evenodd" d="M13.3796 403.643C13.3796 403.643 14.6045 338.558 15.5423 288.731C16.1425 256.82 38.3607 230.813 66.5294 229.051C128.773 225.12 190.221 224.121 250.403 227.78C279.634 229.564 303.772 254.258 308.27 286.985C308.287 286.982 308.287 286.982 308.287 286.982C310.749 304.882 306.45 323.128 296.437 337.265C283.732 355.137 262.281 380.037 229.066 403.788C229.066 403.788 241.349 407.805 242.604 414.013C242.604 414.013 149.147 413.89 125.33 413.861C124.453 413.858 123.666 413.248 123.349 412.321C123.032 411.397 123.25 410.344 123.897 409.677C140.628 392.374 203.636 327.217 203.636 327.217L97.3562 328.438C97.3562 328.438 95.649 395.66 95.2479 411.451C95.2015 413.279 93.8712 414.734 92.2532 414.721C76.2802 414.595 0.00260019 414.004 0.00260019 414.004C0.00260019 414.004 -0.523209 407.694 13.3796 403.643Z" fill="url(#paint0_linear_52_1589)"/>
<path fill-rule="evenodd" clip-rule="evenodd" d="M254.003 383.977L172.646 359.264L175.093 356.731L256.74 381.532C255.84 382.345 254.929 383.161 254.003 383.977ZM96.6706 355.428L14.2446 357.68L14.3042 354.514L96.7511 352.262L96.6706 355.428Z" fill="#82B5B2"/>
<path fill-rule="evenodd" clip-rule="evenodd" d="M203.5 327.356L232.418 327.28C232.694 327.28 232.929 327.508 232.971 327.818C233.013 328.128 232.851 328.425 232.585 328.52L186.662 344.77L203.5 327.356ZM97.3537 328.533L96.9794 343.277L72.587 330.854C72.1146 330.614 71.8552 330.032 71.9642 329.459C72.0735 328.884 72.5218 328.476 73.0398 328.479L97.3537 328.533Z" fill="#346864"/>
<path fill-rule="evenodd" clip-rule="evenodd" d="M238.648 91.9585C238.648 91.9585 210.563 49.0555 147.385 67.793C138.877 70.3165 71.4882 94.5143 44.9045 162.5C42.3051 169.148 28.2897 199.373 48.6081 215.531C62.7845 226.809 77.9858 224.719 131.251 204.55C135.758 202.843 163.522 196.207 158.503 188.953C158.503 188.953 160.743 189.466 161.819 187.779C161.819 187.779 161.942 188.648 162.033 189.291C162.095 189.73 162.278 190.135 162.557 190.449C163.83 191.885 167.654 196.198 170.06 198.911C170.474 199.376 171.078 199.553 171.639 199.37C172.201 199.19 172.631 198.677 172.763 198.032C173.473 194.572 174.507 189.532 174.507 189.532C174.507 189.532 199.776 195.736 215.005 167.878C215.005 167.878 215.64 195.395 234.466 206.502C239.965 209.747 270.496 216.638 278.508 181.014C284.109 156.096 288.202 111.572 291.783 79.5815C291.783 79.5815 310.492 66.2936 311.907 59.929C312.415 57.6431 310.364 53.8884 305.79 57.6854C305.79 57.6854 312.619 51.1157 310.341 48.0197C309.072 46.2977 306.475 46.2075 301.332 51.1903C301.332 51.1903 307.739 43.7663 304.812 40.7953C301.664 37.6045 298.011 44.1673 294.662 47.7C294.662 47.7 302.114 34.7533 297.899 32.5177C296.113 31.5704 294.184 31.4512 287.679 40.7191C281.655 49.3016 273.112 50.1871 266.921 49.3452C266.921 49.3452 269.358 33.1749 266.566 31.6081C263.413 29.8376 260.57 33.0028 253.718 48.904C246.953 64.5965 243.579 80.1448 238.648 91.9585Z" fill="url(#paint1_linear_52_1589)"/>
<path fill-rule="evenodd" clip-rule="evenodd" d="M164.308 64.0519C213.163 57.1051 236.39 88.7035 238.492 91.728C235.305 104.589 229.84 132.065 229.84 132.065L224.09 131.974C224.182 148.028 215.033 167.216 215.033 167.216L214.997 167.891C200.517 194.363 176.646 189.973 174.392 189.594L175.129 185.408L173.215 179.334L172.62 177.613C172.62 177.613 175.26 173.609 177.599 170.062C179.573 167.069 179.112 162.848 176.553 160.488C171.437 155.77 163.861 148.781 163.861 148.781C163.816 148.743 163.772 148.705 163.729 148.667C157.642 143.399 149.951 141.091 142.357 142.255C126.263 144.721 93.9044 149.68 93.9044 149.68L74.3684 115.506C97.1602 90.6286 123.895 77.0725 138.131 71.1909L164.308 64.0519Z" fill="#82B5B2"/>
<path fill-rule="evenodd" clip-rule="evenodd" d="M161.827 187.842C162.372 187.093 164.174 184.262 162.558 181.53L160.284 178.419C160.284 178.419 163.474 178.94 164.77 178.8C164.77 178.8 164.592 182.413 167.23 183.041C167.951 183.21 168.696 182.905 169.153 182.251C170.426 180.443 173.276 176.377 173.276 176.377C173.276 176.377 174.865 184.136 175.153 185.54C175.182 185.682 175.182 185.83 175.155 185.973C174.893 187.313 173.505 194.414 173.505 194.414L172.762 198.032C172.63 198.677 172.2 199.19 171.639 199.37C171.078 199.553 170.473 199.376 170.06 198.911C167.654 196.198 163.83 191.885 162.556 190.449C162.278 190.135 162.095 189.73 162.032 189.291L161.827 187.842ZM150.564 142.254C150.564 142.254 160.687 143.931 167.182 152.079L162.707 127.645L147.878 127.742L150.564 142.254Z" fill="#FFBF2F"/>
<path fill-rule="evenodd" clip-rule="evenodd" d="M173.582 194.019L173.505 194.414L172.762 198.032C172.63 198.677 172.2 199.19 171.639 199.37C171.078 199.553 170.473 199.376 170.06 198.911L166.656 195.072L173.582 194.019ZM163.533 178.8C164.011 178.828 164.449 178.835 164.77 178.8C164.77 178.8 164.592 182.413 167.23 183.041C167.516 183.108 167.806 183.101 168.081 183.026L168.491 185.185L174.664 183.153L175.153 185.54C175.168 185.613 175.175 185.688 175.175 185.763L162.287 190.065C162.159 189.83 162.072 189.567 162.033 189.291L161.827 187.842C161.925 187.708 162.063 187.507 162.215 187.251L164.974 186.343L163.533 178.8ZM156.954 144.338L153.778 127.703L157.56 127.679L161.165 146.645C159.719 145.695 158.282 144.937 156.954 144.338Z" fill="black"/>
<path fill-rule="evenodd" clip-rule="evenodd" d="M159.044 191.317L150.541 190.547C149.926 190.492 149.466 189.882 149.515 189.186C149.564 188.49 150.104 187.97 150.719 188.026L160.297 188.891C159.378 189.153 158.503 188.953 158.503 188.953C159.054 189.75 159.21 190.54 159.044 191.317ZM162.896 179.387C162.974 179.32 163.062 179.265 163.157 179.222C163.157 179.222 164.229 178.747 165.37 178.24C166.714 177.644 167.712 176.336 168.038 174.745C168.038 174.745 168.038 174.745 168.038 174.744C168.703 171.498 167.506 168.128 165.04 166.306C162.24 164.236 159.242 162.021 159.242 162.021C158.726 161.639 158.58 160.854 158.918 160.27C159.255 159.685 159.949 159.521 160.465 159.903L166.042 164.024L166.191 162.59C166.263 161.896 166.82 161.399 167.432 161.481C168.045 161.563 168.484 162.192 168.412 162.885L168.092 165.962C170.072 168.46 170.909 171.939 170.217 175.315C170.217 175.316 170.217 175.316 170.217 175.316C169.725 177.72 168.217 179.695 166.187 180.596C165.045 181.102 163.974 181.578 163.974 181.578C163.576 181.754 163.142 181.654 162.837 181.36C162.555 181.599 162.177 181.683 161.817 181.548L152.276 177.987C151.69 177.768 151.372 177.053 151.565 176.39C151.758 175.727 152.391 175.366 152.977 175.585L162.518 179.146C162.661 179.199 162.788 179.282 162.896 179.387ZM230.234 118.207C230.234 118.207 222.088 156.851 220.302 174.11C220.229 174.803 220.668 175.432 221.283 175.514C221.895 175.595 222.452 175.098 222.522 174.405C224.302 157.236 232.412 118.795 232.412 118.795C232.554 118.116 232.182 117.433 231.581 117.271C230.983 117.109 230.379 117.528 230.234 118.207ZM99.9189 144.616C80.5265 149.534 68.6778 153.712 62.9188 157.339C62.2448 157.763 62.0022 158.727 62.3776 159.49C62.7527 160.252 63.6045 160.527 64.2784 160.102C69.9184 156.55 81.5385 152.519 100.53 147.702C101.283 147.512 101.757 146.665 101.589 145.814C101.42 144.962 100.672 144.425 99.9189 144.616ZM292.129 79.3307C291.903 79.4945 291.783 79.5815 291.783 79.5815C291.523 81.8975 291.26 84.2793 290.997 86.714L285.261 85.0071C285.043 84.9419 284.881 84.7335 284.853 84.4795C284.822 84.2259 284.931 83.977 285.127 83.8502L292.129 79.3307ZM310.704 48.7605C311.646 52.0522 305.79 57.6855 305.79 57.6855C305.958 57.546 306.123 57.417 306.282 57.2978C302.198 61.5338 296.683 66.5599 291.358 69.2118C290.793 69.4933 290.133 69.2029 289.885 68.5638C289.636 67.9249 289.893 67.1776 290.458 66.8964C299.422 62.4314 308.929 50.9633 310.704 48.7605ZM305.575 42.9023C305.525 46.3312 301.332 51.1904 301.332 51.1904C301.639 50.8899 301.941 50.6078 302.234 50.3437C298.12 54.8201 292.16 60.7362 286.924 63.7442C286.374 64.0605 285.7 63.8116 285.42 63.1892C285.141 62.5664 285.362 61.8046 285.912 61.4883C294.357 56.6361 304.725 43.9542 305.575 42.9023ZM298.746 38.2295C297.608 42.5841 294.662 47.7 294.662 47.7C294.754 47.6039 294.846 47.5055 294.936 47.4056C291.525 51.4437 286.921 55.8644 281.742 58.0875C281.163 58.3348 280.517 58.0059 280.299 57.3531C280.081 56.7003 280.372 55.9691 280.948 55.7215C289.89 51.8849 296.985 41.0888 298.746 38.2295Z" fill="#82B5B2"/>
<path fill-rule="evenodd" clip-rule="evenodd" d="M128.191 144.425L136.837 134.041C137.226 133.574 137.829 133.426 138.354 133.67C138.879 133.913 139.217 134.497 139.205 135.139L139.057 142.76L128.191 144.425ZM224.07 133.538C224.045 132.159 223.872 123.998 223.128 118.398C223.072 118.134 223.201 117.864 223.427 117.769C223.651 117.674 223.905 117.784 224.014 118.026C225.63 121.508 228.085 127.154 229.491 132.059L224.09 131.974C224.093 132.492 224.084 133.014 224.07 133.538Z" fill="#346864"/>
<path d="M162.204 54.7117C174.254 54.7117 184.023 43.6229 184.023 29.9442C184.023 16.2655 174.254 5.17673 162.204 5.17673C150.155 5.17673 140.386 16.2655 140.386 29.9442C140.386 43.6229 150.155 54.7117 162.204 54.7117Z" fill="#99C3C0"/>
<path fill-rule="evenodd" clip-rule="evenodd" d="M147.7 48.4391C143.213 43.9004 140.386 37.2939 140.386 29.9439C140.386 16.2742 150.163 5.17648 162.205 5.17648C169.58 5.17648 176.106 9.3398 180.056 15.7084L162.188 33.7833C161.974 33.0711 161.647 32.3766 161.205 31.7377C159.339 29.0378 156.126 28.347 154.037 30.1963C151.947 32.0455 151.766 35.7388 153.633 38.4388C154.213 39.2778 154.923 39.9227 155.689 40.3579L147.7 48.4391Z" fill="black"/>
<path d="M405.099 72.8326H388.427L395.457 100.23H412.129L405.099 72.8326Z" fill="white"/>
<path fill-rule="evenodd" clip-rule="evenodd" d="M395.87 99.6054H401.133C401.436 99.6054 401.685 99.8854 401.685 100.23C401.685 100.575 401.436 100.855 401.131 100.855H395.455C395.21 100.855 394.994 100.672 394.926 100.405L387.896 73.0069C387.848 72.8181 387.88 72.6145 387.984 72.4576C388.089 72.3003 388.251 72.2078 388.427 72.2078H400.121C400.426 72.2078 400.674 72.4877 400.673 72.8327C400.673 73.1777 400.427 73.4576 400.122 73.4576H389.161L395.87 99.6054Z" fill="black"/>
<path fill-rule="evenodd" clip-rule="evenodd" d="M404.683 73.4576H400.122C399.816 73.4576 399.569 73.1777 399.57 72.8327C399.57 72.4877 399.816 72.2078 400.121 72.2078H405.099C405.343 72.2078 405.559 72.3914 405.627 72.6585L412.657 100.056C412.706 100.245 412.673 100.449 412.569 100.606C412.464 100.763 412.302 100.855 412.129 100.855H401.131C400.826 100.855 400.579 100.575 400.579 100.23C400.579 99.8854 400.827 99.6054 401.133 99.6054H411.392L404.683 73.4576Z" fill="black"/>
<path d="M404.385 75.2943H390.581L391.507 78.3245H405.31L404.385 75.2943Z" fill="black"/>
<path d="M405.738 80.2696H391.935L392.861 83.2999H406.664L405.738 80.2696Z" fill="black"/>
<path d="M407.092 85.2451H393.289L394.214 88.2754H408.017L407.092 85.2451Z" fill="black"/>
<path d="M408.446 90.2203H394.643L395.568 93.2507H409.371L408.446 90.2203Z" fill="black"/>
<path d="M409.8 95.1957H395.996L396.922 98.226H410.725L409.8 95.1957Z" fill="black"/>
<path fill-rule="evenodd" clip-rule="evenodd" d="M408.937 88.5657C408.392 86.8269 405.138 75.9454 407.651 71.3251C407.822 71.0244 408.093 70.8156 408.4 70.7489C409.295 70.5851 411.201 71.0117 413.899 75.9322C413.899 75.9322 438.392 117.551 447.234 123.769C447.234 123.769 447.469 91.9896 480.541 86.7937C485.131 86.0723 517.395 78.9772 535.478 129.626C541.46 146.382 541.393 159.78 541.287 174.101C541.217 185.454 536.009 195.973 527.486 201.967C516.319 209.823 502.47 211.05 490.358 205.253C482.232 201.378 471.743 197.441 459.838 195.458L433.701 192.599C433.701 192.599 435.007 200.679 424.186 199.123C424.186 199.123 415.666 197.852 417.368 191.387C417.368 191.387 411.626 190.336 412.811 184.057C412.811 184.057 407.369 179.252 412.202 173.387C412.202 173.387 396.489 173.173 393.294 164.707C393.026 163.974 393.009 163.153 393.252 162.408C393.546 161.487 394.306 160.507 396.159 160.435C396.159 160.435 417.896 160.057 423.616 158.204L411.19 134.288C411.19 134.288 401.513 128.27 399.282 118.649C396.984 118.661 395.033 116.656 394.857 114.023C394.706 111.77 395.902 109.751 397.675 108.977L396.657 109.064C394.253 109.269 392.156 107.229 391.975 104.511C391.829 102.317 392.976 100.348 394.686 99.5616C392.366 99.6828 390.367 97.6922 390.191 95.0561C390.012 92.372 391.793 90.0284 394.164 89.826L408.937 88.5657Z" fill="url(#paint2_linear_52_1589)"/>
<path fill-rule="evenodd" clip-rule="evenodd" d="M433.344 195.714C428.228 195.382 424.122 196.77 424.122 196.77C423.381 197.023 422.601 196.546 422.381 195.711C422.16 194.876 422.579 193.993 423.32 193.74C423.32 193.74 429.294 191.714 436.072 192.858L433.702 192.599C433.702 192.599 433.948 194.12 433.344 195.714ZM414.738 190.149C415.716 186.792 419.046 179.389 429.623 177.563C430.384 177.431 431.099 178.025 431.214 178.887C431.331 179.75 430.806 180.558 430.043 180.689C420.715 182.3 418.02 188.932 417.332 191.38C417.114 191.334 415.881 191.044 414.738 190.149ZM410.794 181.16C412.161 177.862 415.887 172.502 425.9 170.392C426.657 170.232 427.39 170.799 427.53 171.657C427.672 172.515 427.169 173.341 426.412 173.501C413.919 176.133 412.773 184.256 412.812 184.057C412.812 184.057 411.563 182.954 410.794 181.16ZM408.734 173.113C410.369 170.715 415.546 164.041 423.186 162.802C423.949 162.678 424.659 163.279 424.768 164.143C424.877 165.007 424.346 165.809 423.583 165.933C418.204 166.805 414.263 170.793 412.183 173.4C411.923 173.394 410.576 173.34 408.734 173.113ZM490.031 157.107L507.097 163.894C507.824 164.184 508.623 163.75 508.881 162.927C509.135 162.103 508.752 161.2 508.025 160.911L490.959 154.123C490.23 153.833 489.433 154.267 489.176 155.09C488.922 155.914 489.305 156.817 490.031 157.107ZM422.16 155.397C423.952 154.997 443.673 150.664 458.058 150.839C458.829 150.849 459.45 151.565 459.442 152.437C459.433 153.31 458.799 154.011 458.027 154.002C443.189 153.821 423.233 158.329 423.616 158.204L422.16 155.397ZM411.191 134.288L415.515 136.489C416.077 136.783 416.317 137.536 416.06 138.169C415.797 138.803 415.132 139.078 414.573 138.783L413.134 138.025L411.191 134.288ZM408.205 85.9926C410.735 86.4587 412.535 87.9872 413.189 89.196C414.651 91.8941 414.073 94.5422 412.675 96.4284C412.765 96.9309 412.918 97.6979 413.15 98.6321C413.488 98.9012 413.774 99.1815 414.011 99.461C415.306 100.982 415.389 102.597 415.415 103.095C415.442 103.695 415.395 104.253 415.283 104.771C416.502 107.366 418.218 109.926 420.642 111.399C421.184 111.729 421.388 112.497 421.098 113.112C420.807 113.727 420.128 113.958 419.582 113.628C418.557 113.004 417.634 112.216 416.804 111.322C416.807 111.334 416.809 111.345 416.812 111.357C417.721 114.57 416.264 118.038 413.48 119.265C409.242 121.146 403.305 121.271 400.06 121.171C399.746 120.361 399.484 119.52 399.282 118.649C398.997 118.651 407.775 119.08 412.664 116.908C414.369 116.157 415.25 114.022 414.665 112.06C414.657 112.039 414.651 112.016 414.646 111.994C414.227 110.69 413.08 109.866 411.856 109.996L409.553 110.243C409.111 110.391 408.831 110.456 408.831 110.456C408.608 110.508 408.384 110.48 408.188 110.389L395.162 111.781C395.618 110.507 396.523 109.48 397.675 108.977L409.142 107.746C409.821 107.502 410.847 107.05 411.722 106.307C412.544 105.609 413.251 104.631 413.181 103.234C413.167 102.958 413.12 102.062 412.401 101.217C411.512 100.175 409.768 99.2979 406.433 99.2106C406.344 99.2083 406.257 99.1941 406.176 99.1694C402.271 99.3156 398.268 99.3836 394.287 99.5613C392.825 99.4851 391.531 98.5742 390.801 97.2162C396.585 96.8446 402.489 96.8183 408.13 96.5561C408.926 96.5191 409.796 96.0542 410.492 95.3499C410.587 95.1589 410.727 94.997 410.897 94.8841C411.764 93.7521 412.133 92.1771 411.283 90.5174C410.495 88.9797 408.938 88.5657 408.938 88.5657C408.809 88.1533 408.527 87.2269 408.205 85.9926ZM415.275 110.496C414.897 110.676 414.839 110.864 414.811 110.925C414.869 110.83 414.942 110.742 415.023 110.668C415.099 110.6 415.183 110.542 415.275 110.496L415.294 110.487L415.275 110.496ZM414.02 107.362C413.913 107.494 413.799 107.622 413.684 107.744C413.95 107.846 414.207 107.972 414.453 108.122C414.302 107.871 414.159 107.618 414.02 107.362Z" fill="#FD9500"/>
<path fill-rule="evenodd" clip-rule="evenodd" d="M447.142 123.704L447.234 123.769C447.234 123.769 447.469 91.9896 480.541 86.7937C485.131 86.0723 517.395 78.9771 535.478 129.626C535.543 129.802 535.604 129.977 535.666 130.152C524.948 142.915 513.166 133.295 513.166 133.295C507.404 153.221 488.983 144.66 488.983 144.66L494.943 159.057C481.025 153.273 453.951 154.113 453.951 154.113C448.338 146.11 447.273 131.697 447.142 123.704Z" fill="#FD9500"/>
<path fill-rule="evenodd" clip-rule="evenodd" d="M488.427 156.93C488.427 156.93 484.832 143.803 482.243 134.361C482.129 133.938 482.319 133.485 482.679 133.318C483.043 133.151 483.459 133.325 483.638 133.72C488.22 143.855 495.127 159.129 495.127 159.129L488.427 156.93Z" fill="#E86135"/>
<path fill-rule="evenodd" clip-rule="evenodd" d="M386.219 241.92C412.168 206.309 465.904 219.519 477.734 221.284C554.296 232.705 537.314 299.244 534.547 307.742C528.47 326.392 513.839 333.606 492.004 336.114V408.498C492.004 408.498 485.34 401.764 483.808 394.117C483.808 394.117 481.18 393.934 476.635 393.418C476.635 393.418 480.093 404.035 481.913 409.627C482.164 410.392 482.067 411.246 481.653 411.913C481.242 412.584 480.568 412.982 479.847 412.982H392.905C397.641 403.203 406.963 403.286 406.963 403.286C403.321 392.963 399.564 382.924 395.866 372.677C372.055 361.915 351.059 345.937 344.655 322.347C342.169 313.194 340.702 272.924 386.219 241.92Z" fill="url(#paint3_linear_52_1589)"/>
<path fill-rule="evenodd" clip-rule="evenodd" d="M398.462 379.822C407.12 384.765 422.106 389.351 432.038 370.492C432.247 370.09 432.602 369.818 433.008 369.739C433.413 369.663 433.827 369.793 434.143 370.093C434.143 370.093 440.354 376.036 447.994 378.971C452.399 380.663 457.297 381.378 461.696 379.132C464.609 377.643 467.282 374.85 469.465 370.255C469.828 369.486 470.675 369.195 471.357 369.61C472.037 370.024 472.291 370.982 471.925 371.751C469.389 377.092 466.233 380.284 462.845 382.014C457.789 384.597 452.156 383.911 447.093 381.966C441.081 379.654 435.898 375.597 433.6 373.633C423.612 391.011 409.468 388.554 400.003 384.038L399.343 382.238C399.111 381.602 398.879 380.967 398.647 380.331L398.462 379.822Z" fill="#FD9500"/>
<path fill-rule="evenodd" clip-rule="evenodd" d="M461.227 336.772C461.227 336.772 437.494 336.661 424.434 336.601C423.9 336.598 423.445 337.047 423.375 337.648C423.308 338.249 423.643 338.815 424.16 338.967C437.847 343.027 464.062 350.808 464.062 350.808L461.227 336.772Z" fill="#FD9500"/>
<path fill-rule="evenodd" clip-rule="evenodd" d="M493.715 335.905C493.147 335.978 492.58 336.047 492.004 336.114V339.201C481.583 339.941 471.927 340.124 462.513 339.979L479.62 393.737C478.748 393.649 477.747 393.545 476.635 393.418L479.128 401.078C478.986 400.917 478.868 400.717 478.796 400.487L459.524 339.925C457.763 339.884 456.011 339.833 454.258 339.773C453.489 339.748 452.883 339.017 452.905 338.147C452.927 337.275 453.573 336.588 454.342 336.614C466.882 337.041 479.57 336.99 493.715 335.905ZM393.241 234.004C377.31 250.077 371.026 267.617 375.42 298.175C378.411 318.985 386.3 345.728 399.399 381.938C399.485 382.175 399.516 382.425 399.499 382.665C398.286 379.347 397.073 376.023 395.865 372.677C394.75 372.174 393.643 371.659 392.542 371.131C381.877 340.617 375.336 317.293 372.661 298.684C369.388 275.932 371.828 260.103 379.518 246.807C381.629 245.156 383.859 243.527 386.219 241.92C388.379 238.954 390.733 236.326 393.241 234.004Z" fill="#FD9500"/>
<path d="M455.243 85.0462C466.569 85.0462 475.75 74.5817 475.75 61.6731C475.75 48.7644 466.569 38.2999 455.243 38.2999C443.917 38.2999 434.736 48.7644 434.736 61.6731C434.736 74.5817 443.917 85.0462 455.243 85.0462Z" fill="#FFBF2F"/>
<path fill-rule="evenodd" clip-rule="evenodd" d="M439.322 46.9468C443.085 41.6721 448.821 38.2991 455.245 38.2991C466.563 38.2991 475.752 48.7719 475.752 61.6721C475.752 64.3088 475.369 66.844 474.662 69.2077C471.044 68.8494 468.99 65.8019 468.282 64.5276C469.605 63.7572 470.524 62.0589 470.524 60.0898C470.524 57.3971 468.805 55.2108 466.686 55.2108C464.567 55.2108 462.848 57.3971 462.848 60.0898C462.848 60.7261 462.943 61.3346 463.119 61.8925C450.127 63.476 441.863 51.34 439.322 46.9468ZM448.637 34.5789C449.168 34.7813 449.752 34.5498 450.057 34.0168C450.359 33.4843 450.305 32.7863 449.922 32.3223C449.813 32.1702 449.69 32.0222 449.562 31.8697C446.33 28.0571 442.691 24.5972 438.814 21.6705C426.889 12.6661 412.68 5.93087 398.711 2.35707C384.282 -1.33438 366.271 -1.54216 353.521 8.01128C345.132 14.2958 338.86 27.5935 346.091 37.9778C348.685 41.7024 352.412 44.2911 356.264 46.0343C371.856 53.0908 388.114 48.6391 402.927 41.5731C411.36 37.5499 419.746 32.2167 428.932 30.5617C434.699 29.5227 443.597 32.5595 448.637 34.5789Z" fill="black"/>
<path fill-rule="evenodd" clip-rule="evenodd" d="M527.722 336.909L566.743 217.718L575.07 221.152L513.108 413.512H502.645L524.44 346.934H462.361V336.909H527.722Z" fill="black"/>
<path d="M377.955 93.6024H260.652L274.531 186.81H391.834L377.955 93.6024Z" fill="black"/>
<path d="M347.891 182.166H321.701L325.511 207.752H351.701L347.891 182.166Z" fill="black"/>
<path d="M371.537 100.708H268.931L280.405 177.762H383.01L371.537 100.708Z" fill="#EAEAEB"/>
<path d="M368.283 107.516H333.418L338.515 141.742H373.379L368.283 107.516Z" fill="white"/>
<path fill-rule="evenodd" clip-rule="evenodd" d="M334.41 108.464L336.173 120.304C336.25 120.82 335.941 121.31 335.485 121.397C335.029 121.484 334.596 121.135 334.519 120.619L332.591 107.673C332.55 107.398 332.618 107.116 332.778 106.903C332.937 106.69 333.171 106.567 333.418 106.567H368.282C368.691 106.567 369.041 106.901 369.109 107.358L371.036 120.304C371.113 120.82 370.805 121.31 370.349 121.397C369.892 121.484 369.46 121.135 369.383 120.619L367.573 108.464H334.41Z" fill="black"/>
<path fill-rule="evenodd" clip-rule="evenodd" d="M372.387 140.794L369.383 120.619C369.306 120.103 369.614 119.613 370.07 119.526C370.526 119.439 370.959 119.788 371.036 120.304L374.205 141.585C374.246 141.86 374.178 142.142 374.019 142.355C373.859 142.568 373.625 142.691 373.378 142.691H338.514C338.105 142.691 337.755 142.357 337.687 141.9L334.519 120.619C334.442 120.103 334.75 119.613 335.206 119.526C335.663 119.439 336.096 119.788 336.173 120.304L339.224 140.794H372.387Z" fill="black"/>
<path fill-rule="evenodd" clip-rule="evenodd" d="M351.143 141.743H349.443L344.313 107.516H346.016L351.143 141.743ZM363.546 141.743H361.843L356.717 107.516H358.416L363.546 141.743Z" fill="black"/>
<path fill-rule="evenodd" clip-rule="evenodd" d="M372.205 133.867H337.342L337.059 131.969H371.923L372.205 133.867ZM370.95 125.43H336.086L335.804 123.533H370.668L370.95 125.43ZM369.6 116.358H334.736L334.451 114.46H369.318L369.6 116.358Z" fill="black"/>
<path fill-rule="evenodd" clip-rule="evenodd" d="M324.574 170.963H352.398L344.667 119.04H324.574" fill="white"/>
<path fill-rule="evenodd" clip-rule="evenodd" d="M343.958 119.989H324.573C324.11 119.989 323.735 119.564 323.735 119.04C323.734 118.516 324.111 118.091 324.573 118.091H344.667C345.076 118.091 345.426 118.426 345.494 118.882L353.225 170.806C353.266 171.081 353.198 171.363 353.039 171.576C352.879 171.789 352.645 171.912 352.398 171.912H324.573C324.11 171.912 323.735 171.487 323.735 170.963C323.734 170.439 324.11 170.014 324.573 170.014H351.407L343.958 119.989Z" fill="black"/>
<path fill-rule="evenodd" clip-rule="evenodd" d="M324.573 119.04H284.257L291.988 170.963H324.573" fill="white"/>
<path fill-rule="evenodd" clip-rule="evenodd" d="M292.697 170.014H324.573C325.035 170.014 325.412 170.439 325.412 170.963C325.411 171.487 325.036 171.912 324.573 171.912H291.987C291.578 171.912 291.229 171.578 291.161 171.121L283.429 119.198C283.388 118.923 283.457 118.641 283.616 118.427C283.776 118.214 284.01 118.091 284.256 118.091H324.573C325.036 118.091 325.412 118.516 325.412 119.04C325.411 119.564 325.036 119.989 324.573 119.989H285.248L292.697 170.014Z" fill="black"/>
<path d="M344.668 119.04H284.258L285.186 125.276H345.596L344.668 119.04Z" fill="black"/>
<path fill-rule="evenodd" clip-rule="evenodd" d="M350.223 156.354H289.812L289.53 154.456H349.941L350.223 156.354ZM347.732 139.632H287.324L287.039 137.734H347.45L347.732 139.632Z" fill="black"/>
<path fill-rule="evenodd" clip-rule="evenodd" d="M307.47 170.963H305.771L297.991 119.04H299.691L307.47 170.963ZM323.932 170.963H322.23L314.45 119.04H316.153L323.932 170.963ZM340.187 170.963H338.488L330.708 119.04H332.408L340.187 170.963Z" fill="black"/>
<path d="M345.778 149.112C345.814 149.63 345.726 150.11 345.515 150.553C345.291 150.985 344.964 151.341 344.51 151.624C344.056 151.894 343.506 152.064 342.861 152.121C342.084 152.19 341.439 152.09 340.913 151.809C340.547 151.611 340.23 151.324 339.985 150.958C339.728 150.593 339.593 150.229 339.568 149.868C339.553 149.651 339.606 149.465 339.738 149.308C339.859 149.139 340.018 149.053 340.226 149.034C340.39 149.02 340.536 149.067 340.664 149.165C340.793 149.275 340.904 149.447 340.996 149.669C341.114 149.937 341.239 150.156 341.372 150.326C341.494 150.497 341.668 150.639 341.885 150.741C342.112 150.842 342.389 150.878 342.729 150.848C343.199 150.807 343.573 150.652 343.852 150.385C344.131 150.118 344.252 149.805 344.227 149.443C344.207 149.154 344.115 148.932 343.938 148.766C343.773 148.599 343.556 148.485 343.297 148.411C343.039 148.337 342.693 148.27 342.27 148.199C341.702 148.104 341.22 147.977 340.824 147.818C340.428 147.659 340.114 147.42 339.861 147.103C339.619 146.785 339.481 146.386 339.446 145.88C339.414 145.41 339.505 144.978 339.709 144.584C339.924 144.202 340.244 143.882 340.668 143.651C341.102 143.407 341.621 143.264 342.222 143.21C342.704 143.168 343.123 143.191 343.483 143.293C343.842 143.394 344.15 143.549 344.394 143.745C344.639 143.942 344.819 144.156 344.945 144.387C345.071 144.618 345.142 144.842 345.158 145.071C345.172 145.276 345.119 145.474 344.999 145.643C344.868 145.824 344.71 145.923 344.513 145.94C344.327 145.957 344.193 145.92 344.088 145.832C343.982 145.733 343.872 145.585 343.747 145.366C343.582 145.053 343.39 144.816 343.18 144.652C342.971 144.489 342.647 144.421 342.199 144.461C341.794 144.497 341.472 144.622 341.235 144.849C340.997 145.064 340.882 145.316 340.901 145.593C340.913 145.762 340.967 145.915 341.063 146.027C341.16 146.152 341.276 146.239 341.436 146.322C341.595 146.392 341.753 146.451 341.91 146.498C342.067 146.532 342.323 146.582 342.68 146.648C343.126 146.729 343.539 146.814 343.909 146.915C344.269 147.028 344.587 147.17 344.852 147.34C345.117 147.511 345.332 147.746 345.495 148.035C345.658 148.323 345.748 148.679 345.778 149.112Z" fill="black"/>
<path fill-rule="evenodd" clip-rule="evenodd" d="M341.16 142.809L342.353 152.648C342.417 153.167 342.839 153.53 343.297 153.459C343.757 153.388 344.077 152.909 344.016 152.39L342.822 142.552C342.761 142.033 342.336 141.669 341.879 141.74C341.418 141.812 341.099 142.291 341.16 142.809Z" fill="black"/>
<path fill-rule="evenodd" clip-rule="evenodd" d="M292.04 128.311L292.999 134.618C293.077 135.134 293.513 135.481 293.969 135.392C294.425 135.303 294.732 134.812 294.651 134.296L293.692 127.99C293.614 127.474 293.181 127.127 292.725 127.215C292.269 127.304 291.962 127.795 292.04 128.311Z" fill="black"/>
<path fill-rule="evenodd" clip-rule="evenodd" d="M297.335 160.533L298.294 166.84C298.373 167.356 298.809 167.703 299.264 167.614C299.72 167.525 300.027 167.034 299.946 166.518L298.987 160.212C298.909 159.695 298.476 159.348 298.02 159.437C297.565 159.526 297.257 160.017 297.335 160.533Z" fill="black"/>
<path fill-rule="evenodd" clip-rule="evenodd" d="M311.341 144.543C311.597 144.501 311.812 144.74 312.019 145.034C312.362 145.516 312.614 146.222 312.717 147.026C312.821 147.831 312.756 148.589 312.548 149.162C312.424 149.51 312.278 149.808 312.022 149.85C311.563 149.925 311.247 150.407 311.313 150.925C311.38 151.443 311.804 151.803 312.263 151.728C312.909 151.622 313.482 151.159 313.879 150.395C314.334 149.516 314.562 148.188 314.378 146.754C314.194 145.32 313.642 144.12 312.985 143.423C312.412 142.819 311.746 142.559 311.1 142.665C310.642 142.741 310.325 143.222 310.392 143.74C310.458 144.259 310.883 144.618 311.341 144.543Z" fill="black"/>
<path fill-rule="evenodd" clip-rule="evenodd" d="M312.022 149.85C311.768 149.892 311.551 149.653 311.344 149.36C311.003 148.877 310.751 148.171 310.648 147.366C310.545 146.562 310.609 145.804 310.814 145.231C310.939 144.883 311.088 144.585 311.341 144.543C311.799 144.468 312.118 143.986 312.052 143.468C311.986 142.95 311.559 142.59 311.1 142.665C310.454 142.771 309.884 143.234 309.486 143.998C309.029 144.878 308.803 146.205 308.987 147.639C309.171 149.073 309.721 150.273 310.381 150.97C310.953 151.574 311.617 151.834 312.263 151.728C312.721 151.653 313.04 151.171 312.974 150.653C312.907 150.134 312.48 149.775 312.022 149.85Z" fill="black"/>
<path fill-rule="evenodd" clip-rule="evenodd" d="M313.627 161.194C313.883 161.152 314.098 161.39 314.305 161.684C314.648 162.167 314.9 162.873 315.004 163.677C315.107 164.482 315.042 165.24 314.834 165.813C314.71 166.161 314.564 166.459 314.308 166.501C313.849 166.576 313.533 167.058 313.599 167.576C313.666 168.094 314.09 168.454 314.549 168.379C315.195 168.273 315.768 167.81 316.165 167.046C316.62 166.166 316.848 164.839 316.664 163.405C316.48 161.971 315.928 160.771 315.271 160.074C314.698 159.47 314.032 159.21 313.386 159.316C312.928 159.391 312.611 159.873 312.678 160.391C312.744 160.909 313.169 161.269 313.627 161.194Z" fill="black"/>
<path fill-rule="evenodd" clip-rule="evenodd" d="M314.308 166.501C314.054 166.543 313.837 166.304 313.63 166.011C313.289 165.528 313.037 164.822 312.934 164.017C312.831 163.213 312.895 162.455 313.101 161.882C313.225 161.534 313.374 161.236 313.627 161.194C314.086 161.119 314.405 160.637 314.338 160.119C314.272 159.6 313.845 159.241 313.386 159.316C312.74 159.422 312.17 159.885 311.772 160.649C311.315 161.529 311.09 162.856 311.274 164.29C311.458 165.724 312.007 166.924 312.667 167.621C313.24 168.225 313.903 168.485 314.549 168.379C315.007 168.304 315.326 167.822 315.26 167.303C315.193 166.785 314.766 166.426 314.308 166.501Z" fill="black"/>
<path fill-rule="evenodd" clip-rule="evenodd" d="M329.965 161.184C330.221 161.142 330.435 161.381 330.642 161.675C330.985 162.157 331.238 162.863 331.341 163.667C331.444 164.472 331.38 165.23 331.172 165.803C331.047 166.151 330.901 166.449 330.645 166.491C330.187 166.566 329.87 167.048 329.937 167.566C330.003 168.084 330.428 168.444 330.886 168.369C331.532 168.263 332.105 167.8 332.502 167.036C332.957 166.157 333.185 164.829 333.001 163.395C332.817 161.961 332.265 160.761 331.608 160.064C331.035 159.46 330.37 159.2 329.724 159.306C329.265 159.382 328.949 159.863 329.015 160.381C329.082 160.9 329.506 161.259 329.965 161.184Z" fill="black"/>
<path fill-rule="evenodd" clip-rule="evenodd" d="M330.645 166.491C330.392 166.532 330.174 166.294 329.968 166.001C329.627 165.518 329.374 164.812 329.271 164.007C329.168 163.203 329.233 162.445 329.438 161.872C329.563 161.524 329.711 161.226 329.965 161.184C330.423 161.109 330.742 160.627 330.676 160.109C330.609 159.59 330.182 159.231 329.724 159.306C329.078 159.412 328.507 159.875 328.11 160.639C327.653 161.519 327.427 162.846 327.611 164.28C327.795 165.714 328.345 166.914 329.004 167.61C329.577 168.215 330.24 168.475 330.886 168.369C331.344 168.294 331.664 167.811 331.597 167.293C331.531 166.775 331.104 166.416 330.645 166.491Z" fill="black"/>
<path d="M311.665 36.4735L279.08 21.227L260.369 67.6117L292.954 82.8582L311.665 36.4735Z" fill="#DD6140"/>
<path d="M306.945 39.9488L280.033 27.3568L277.601 33.3863L304.512 45.9784L306.945 39.9488Z" fill="white"/>
<path fill-rule="evenodd" clip-rule="evenodd" d="M279.057 38.7439C280.191 39.2994 280.736 40.7486 280.263 41.985C279.79 43.2215 278.483 43.7636 277.348 43.2082L277.015 44.0788C278.581 44.8455 280.378 44.0695 281.031 42.3615C281.685 40.6535 280.955 38.64 279.39 37.8733L279.057 38.7439Z" fill="white"/>
<path fill-rule="evenodd" clip-rule="evenodd" d="M277.349 43.2081C276.215 42.6527 275.669 41.2034 276.143 39.967C276.616 38.7305 277.923 38.1884 279.057 38.7438L279.39 37.8732C277.822 37.1053 276.025 37.8812 275.371 39.5892C274.718 41.2973 275.448 43.3108 277.016 44.0787L277.349 43.2081Z" fill="white"/>
<path fill-rule="evenodd" clip-rule="evenodd" d="M276.197 46.2188C277.331 46.7742 277.876 48.2235 277.403 49.4599C276.93 50.6964 275.623 51.2385 274.489 50.6831L274.156 51.5537C275.721 52.3204 277.518 51.5444 278.172 49.8364C278.825 48.1284 278.095 46.1148 276.53 45.3482L276.197 46.2188Z" fill="white"/>
<path fill-rule="evenodd" clip-rule="evenodd" d="M274.489 50.683C273.355 50.1275 272.81 48.6783 273.283 47.4418C273.756 46.2054 275.063 45.6632 276.197 46.2187L276.53 45.3481C274.962 44.5801 273.165 45.3561 272.511 47.0641C271.858 48.7721 272.588 50.7857 274.156 51.5536L274.489 50.683Z" fill="white"/>
<path fill-rule="evenodd" clip-rule="evenodd" d="M273.338 53.6928C274.472 54.2482 275.017 55.6974 274.544 56.9339C274.071 58.1703 272.764 58.7125 271.63 58.157L271.297 59.0277C272.862 59.7943 274.659 59.0184 275.313 57.3104C275.966 55.6024 275.236 53.5888 273.671 52.8221L273.338 53.6928Z" fill="white"/>
<path fill-rule="evenodd" clip-rule="evenodd" d="M271.629 58.1569C270.495 57.6015 269.95 56.1522 270.423 54.9158C270.896 53.6793 272.203 53.1372 273.337 53.6926L273.671 52.822C272.103 52.0541 270.305 52.83 269.652 54.538C268.998 56.2461 269.728 58.2596 271.296 59.0275L271.629 58.1569Z" fill="white"/>
<path fill-rule="evenodd" clip-rule="evenodd" d="M270.477 61.1674C271.611 61.7228 272.156 63.172 271.683 64.4085C271.21 65.645 269.903 66.1871 268.769 65.6317L268.436 66.5023C270.001 67.269 271.799 66.493 272.452 64.785C273.106 63.077 272.376 61.0634 270.81 60.2968L270.477 61.1674Z" fill="white"/>
<path fill-rule="evenodd" clip-rule="evenodd" d="M268.77 65.6316C267.635 65.0761 267.09 63.6269 267.563 62.3905C268.036 61.154 269.344 60.6119 270.478 61.1673L270.811 60.2967C269.243 59.5288 267.446 60.3047 266.792 62.0127C266.139 63.7207 266.868 65.7343 268.436 66.5022L268.77 65.6316Z" fill="white"/>
<path fill-rule="evenodd" clip-rule="evenodd" d="M285.739 42.0168C286.873 42.5722 287.418 44.0215 286.945 45.2579C286.472 46.4944 285.165 47.0365 284.031 46.4811L283.698 47.3517C285.263 48.1184 287.061 47.3424 287.714 45.6344C288.368 43.9264 287.638 41.9129 286.072 41.1462L285.739 42.0168Z" fill="white"/>
<path fill-rule="evenodd" clip-rule="evenodd" d="M284.031 46.4811C282.897 45.9256 282.352 44.4764 282.825 43.24C283.298 42.0035 284.605 41.4614 285.739 42.0168L286.072 41.1462C284.504 40.3783 282.707 41.1542 282.054 42.8622C281.4 44.5702 282.13 46.5838 283.698 47.3517L284.031 46.4811Z" fill="white"/>
<path fill-rule="evenodd" clip-rule="evenodd" d="M282.879 49.491C284.013 50.0465 284.558 51.4957 284.085 52.7322C283.612 53.9686 282.305 54.5108 281.171 53.9553L280.837 54.826C282.403 55.5926 284.2 54.8167 284.853 53.1087C285.507 51.4006 284.777 49.3871 283.212 48.6204L282.879 49.491Z" fill="white"/>
<path fill-rule="evenodd" clip-rule="evenodd" d="M281.171 53.9554C280.037 53.3999 279.492 51.9507 279.965 50.7143C280.438 49.4778 281.745 48.9357 282.879 49.4911L283.212 48.6205C281.644 47.8526 279.847 48.6285 279.193 50.3365C278.54 52.0445 279.27 54.0581 280.838 54.826L281.171 53.9554Z" fill="white"/>
<path fill-rule="evenodd" clip-rule="evenodd" d="M280.02 56.9655C281.154 57.5209 281.699 58.9702 281.226 60.2066C280.753 61.4431 279.446 61.9852 278.312 61.4298L277.979 62.3004C279.544 63.0671 281.341 62.2911 281.995 60.5831C282.648 58.8751 281.918 56.8616 280.353 56.0949L280.02 56.9655Z" fill="white"/>
<path fill-rule="evenodd" clip-rule="evenodd" d="M278.312 61.4298C277.177 60.8743 276.632 59.4251 277.105 58.1886C277.578 56.9522 278.886 56.41 280.02 56.9655L280.353 56.0948C278.785 55.3269 276.988 56.1029 276.334 57.8109C275.681 59.5189 276.41 61.5325 277.978 62.3004L278.312 61.4298Z" fill="white"/>
<path fill-rule="evenodd" clip-rule="evenodd" d="M277.16 64.4403C278.294 64.9957 278.839 66.4449 278.366 67.6814C277.893 68.9178 276.586 69.46 275.452 68.9045L275.119 69.7752C276.684 70.5418 278.481 69.7659 279.135 68.0579C279.788 66.3499 279.058 64.3363 277.493 63.5696L277.16 64.4403Z" fill="white"/>
<path fill-rule="evenodd" clip-rule="evenodd" d="M275.452 68.9044C274.318 68.349 273.772 66.8997 274.246 65.6633C274.719 64.4268 276.026 63.8847 277.16 64.4401L277.493 63.5695C275.925 62.8016 274.128 63.5775 273.474 65.2855C272.821 66.9936 273.551 69.0071 275.119 69.775L275.452 68.9044Z" fill="white"/>
<path fill-rule="evenodd" clip-rule="evenodd" d="M292.421 45.2892C293.555 45.8446 294.1 47.2938 293.627 48.5303C293.154 49.7667 291.847 50.3089 290.713 49.7534L290.38 50.6241C291.945 51.3907 293.742 50.6148 294.396 48.9068C295.049 47.1988 294.32 45.1852 292.754 44.4185L292.421 45.2892Z" fill="white"/>
<path fill-rule="evenodd" clip-rule="evenodd" d="M290.713 49.7534C289.579 49.198 289.034 47.7487 289.507 46.5123C289.98 45.2758 291.287 44.7337 292.421 45.2891L292.755 44.4185C291.187 43.6506 289.389 44.4265 288.736 46.1345C288.082 47.8426 288.812 49.8561 290.38 50.624L290.713 49.7534Z" fill="white"/>
<path fill-rule="evenodd" clip-rule="evenodd" d="M289.561 52.7636C290.695 53.319 291.24 54.7682 290.767 56.0047C290.294 57.2411 288.987 57.7833 287.853 57.2278L287.52 58.0985C289.085 58.8651 290.883 58.0892 291.536 56.3812C292.19 54.6732 291.46 52.6596 289.894 51.8929L289.561 52.7636Z" fill="white"/>
<path fill-rule="evenodd" clip-rule="evenodd" d="M287.853 57.2277C286.719 56.6723 286.174 55.2231 286.647 53.9866C287.12 52.7502 288.427 52.208 289.561 52.7634L289.894 51.8928C288.327 51.1249 286.529 51.9008 285.876 53.6089C285.222 55.3169 285.952 57.3304 287.52 58.0984L287.853 57.2277Z" fill="white"/>
<path fill-rule="evenodd" clip-rule="evenodd" d="M286.701 60.238C287.835 60.7934 288.38 62.2426 287.907 63.4791C287.434 64.7155 286.127 65.2577 284.993 64.7023L284.66 65.5729C286.225 66.3396 288.022 65.5636 288.676 63.8556C289.329 62.1476 288.6 60.134 287.034 59.3674L286.701 60.238Z" fill="white"/>
<path fill-rule="evenodd" clip-rule="evenodd" d="M284.993 64.7023C283.859 64.1469 283.314 62.6977 283.787 61.4612C284.26 60.2248 285.567 59.6826 286.701 60.238L287.034 59.3674C285.466 58.5995 283.669 59.3755 283.016 61.0835C282.362 62.7915 283.092 64.8051 284.66 65.573L284.993 64.7023Z" fill="white"/>
<path fill-rule="evenodd" clip-rule="evenodd" d="M283.841 67.7126C284.976 68.2681 285.521 69.7173 285.048 70.9538C284.575 72.1902 283.268 72.7324 282.133 72.1769L281.8 73.0476C283.366 73.8142 285.163 73.0383 285.816 71.3303C286.47 69.6223 285.74 67.6087 284.175 66.842L283.841 67.7126Z" fill="white"/>
<path fill-rule="evenodd" clip-rule="evenodd" d="M282.134 72.177C281 71.6216 280.455 70.1724 280.928 68.9359C281.401 67.6995 282.708 67.1573 283.842 67.7128L284.175 66.8422C282.607 66.0742 280.81 66.8502 280.156 68.5582C279.503 70.2662 280.233 72.2798 281.801 73.0477L282.134 72.177Z" fill="white"/>
<path fill-rule="evenodd" clip-rule="evenodd" d="M299.103 48.5619C300.238 49.1173 300.783 50.5666 300.31 51.803C299.836 53.0395 298.529 53.5816 297.395 53.0262L297.062 53.8968C298.628 54.6635 300.425 53.8875 301.078 52.1795C301.732 50.4715 301.002 48.458 299.437 47.6913L299.103 48.5619Z" fill="white"/>
<path fill-rule="evenodd" clip-rule="evenodd" d="M297.395 53.026C296.261 52.4706 295.716 51.0214 296.189 49.7849C296.662 48.5485 297.969 48.0063 299.103 48.5617L299.436 47.6911C297.868 46.9232 296.071 47.6992 295.418 49.4072C294.764 51.1152 295.494 53.1287 297.062 53.8966L297.395 53.026Z" fill="white"/>
<path fill-rule="evenodd" clip-rule="evenodd" d="M296.244 56.0366C297.378 56.592 297.923 58.0412 297.45 59.2777C296.977 60.5141 295.67 61.0563 294.536 60.5009L294.202 61.3715C295.768 62.1381 297.565 61.3622 298.218 59.6542C298.872 57.9462 298.142 55.9326 296.577 55.166L296.244 56.0366Z" fill="white"/>
<path fill-rule="evenodd" clip-rule="evenodd" d="M294.536 60.5007C293.402 59.9453 292.856 58.4961 293.33 57.2596C293.803 56.0232 295.11 55.481 296.244 56.0364L296.577 55.1658C295.009 54.3979 293.212 55.1739 292.558 56.8819C291.905 58.5899 292.635 60.6034 294.203 61.3713L294.536 60.5007Z" fill="white"/>
<path fill-rule="evenodd" clip-rule="evenodd" d="M293.383 63.5111C294.518 64.0665 295.063 65.5157 294.59 66.7522C294.117 67.9886 292.81 68.5308 291.675 67.9753L291.342 68.846C292.908 69.6126 294.705 68.8367 295.358 67.1287C296.012 65.4207 295.282 63.4071 293.717 62.6404L293.383 63.5111Z" fill="white"/>
<path fill-rule="evenodd" clip-rule="evenodd" d="M291.676 67.9752C290.542 67.4198 289.997 65.9705 290.47 64.7341C290.943 63.4976 292.25 62.9555 293.384 63.5109L293.717 62.6403C292.149 61.8724 290.352 62.6483 289.698 64.3563C289.045 66.0644 289.775 68.0779 291.343 68.8458L291.676 67.9752Z" fill="white"/>
<path fill-rule="evenodd" clip-rule="evenodd" d="M290.524 70.9854C291.658 71.5409 292.203 72.9901 291.73 74.2265C291.257 75.463 289.95 76.0052 288.816 75.4497L288.483 76.3204C290.048 77.087 291.845 76.3111 292.499 74.6031C293.152 72.895 292.422 70.8815 290.857 70.1148L290.524 70.9854Z" fill="white"/>
<path fill-rule="evenodd" clip-rule="evenodd" d="M288.816 75.4496C287.682 74.8942 287.137 73.445 287.61 72.2085C288.083 70.9721 289.39 70.4299 290.524 70.9853L290.857 70.1147C289.289 69.3468 287.492 70.1228 286.839 71.8308C286.185 73.5388 286.915 75.5523 288.483 76.3202L288.816 75.4496Z" fill="white"/>
<path d="M486.797 206.748H112.097V218.75H486.797V206.748Z" fill="black"/>
<path fill-rule="evenodd" clip-rule="evenodd" d="M380.45 200.381H385.228V198.116H392.686V200.381H397.771V198.116H405.229V200.381H410.316V198.116H417.774V200.381H419.362C420.092 200.381 420.79 200.71 421.308 201.295C421.822 201.877 422.113 202.667 422.113 203.493V206.649H368.084C368.084 206.649 368.084 205.068 368.084 203.493C368.084 202.667 368.374 201.877 368.889 201.295C369.406 200.71 370.105 200.381 370.834 200.381H372.992V198.116H380.45V200.381Z" fill="#D2D3D5"/>
<path d="M195.584 199.115H129.992V207.583H195.584V199.115Z" fill="white"/>
<path fill-rule="evenodd" clip-rule="evenodd" d="M165.475 197.726V200.256H131.481V205.699H165.475V208.229H130.363C129.746 208.229 129.245 207.663 129.245 206.964V198.991C129.245 198.292 129.746 197.726 130.363 197.726H165.475Z" fill="black"/>
<path fill-rule="evenodd" clip-rule="evenodd" d="M165.475 197.726H196.536C197.153 197.726 197.654 198.292 197.654 198.991V206.964C197.654 207.663 197.153 208.229 196.536 208.229H165.475C164.435 206.989 164.833 206.296 165.475 205.699H195.418V200.256H165.475C165.051 199.323 164.947 198.456 165.475 197.726Z" fill="black"/>
<path fill-rule="evenodd" clip-rule="evenodd" d="M169.537 199.377L169.72 207.321C169.736 208.02 170.25 208.57 170.867 208.555C171.483 208.536 171.971 207.954 171.955 207.255L171.772 199.31C171.756 198.614 171.242 198.061 170.625 198.08C170.008 198.099 169.521 198.681 169.537 199.377ZM183.577 195.676V206.834C183.577 207.533 184.077 208.099 184.695 208.099C185.312 208.099 185.813 207.533 185.813 206.834V195.676C185.813 194.977 185.312 194.411 184.695 194.411C184.077 194.411 183.577 194.977 183.577 195.676ZM176.686 195.86V206.116C176.686 206.815 177.187 207.381 177.804 207.381C178.422 207.381 178.923 206.815 178.923 206.116V195.86C178.923 195.161 178.422 194.595 177.804 194.595C177.187 194.595 176.686 195.161 176.686 195.86ZM190.148 195.787V205.847C190.148 206.543 190.649 207.112 191.267 207.112C191.884 207.112 192.385 206.543 192.385 205.847V195.787C192.385 195.091 191.884 194.522 191.267 194.522C190.649 194.522 190.148 195.091 190.148 195.787Z" fill="black"/>
<path fill-rule="evenodd" clip-rule="evenodd" d="M211.801 139.02H209.822C208.721 139.02 207.826 138.008 207.826 136.762C207.826 135.516 208.721 134.504 209.822 134.504H259.462C260.566 134.504 261.458 135.516 261.458 136.762C261.458 138.008 260.566 139.02 259.462 139.02H258.54C259.543 139.42 260.469 140.071 261.234 140.94C262.582 142.462 263.337 144.526 263.337 146.679V206.661H207.001C207.001 206.661 207.001 164.738 207.001 146.679C207.001 144.526 207.759 142.462 209.104 140.94C209.872 140.071 210.795 139.42 211.801 139.02Z" fill="#FFF4E5"/>
<path fill-rule="evenodd" clip-rule="evenodd" d="M258.54 139.02C259.255 139.304 259.929 139.717 260.536 140.244L208.282 142.053C208.525 141.657 208.799 141.284 209.104 140.939C209.872 140.071 210.795 139.419 211.801 139.02H258.54Z" fill="#F4978B"/>
<path d="M226.857 149.473L208.697 155.701L218.239 191.318L236.399 185.09L226.857 149.473Z" fill="#F4978B"/>
<path fill-rule="evenodd" clip-rule="evenodd" d="M222.845 166.612C224.975 166.612 226.705 168.569 226.705 170.981C226.705 173.392 224.975 175.349 222.845 175.349C222.381 175.349 222.006 175.774 222.006 176.298C222.006 176.822 222.381 177.247 222.845 177.247C225.9 177.247 228.383 174.439 228.383 170.981C228.383 167.522 225.9 164.714 222.845 164.714C222.381 164.714 222.006 165.139 222.006 165.663C222.006 166.187 222.381 166.612 222.845 166.612Z" fill="#DE6647"/>
<path fill-rule="evenodd" clip-rule="evenodd" d="M222.845 175.349C220.712 175.349 218.984 173.392 218.984 170.981C218.984 168.569 220.712 166.612 222.845 166.612C223.306 166.612 223.683 166.187 223.683 165.663C223.683 165.139 223.306 164.714 222.845 164.714C219.787 164.714 217.307 167.522 217.307 170.981C217.307 174.439 219.787 177.247 222.845 177.247C223.306 177.247 223.683 176.822 223.683 176.298C223.683 175.774 223.306 175.349 222.845 175.349Z" fill="#DE6647"/>
<path fill-rule="evenodd" clip-rule="evenodd" d="M224.632 189.125L223.184 184.111C222.994 183.448 223.315 182.733 223.899 182.516C224.486 182.299 225.118 182.662 225.311 183.326L226.773 188.391L224.632 189.125ZM227.642 188.093L226.667 184.524C226.485 183.857 226.815 183.148 227.405 182.942C227.994 182.736 228.621 183.109 228.802 183.776L229.783 187.359L227.642 188.093ZM220.536 151.64L222.116 157.417C222.298 158.084 221.968 158.793 221.378 158.999C220.788 159.205 220.162 158.831 219.98 158.164L218.395 152.374L220.536 151.64ZM217.034 152.841L218.362 157.221C218.563 157.881 218.25 158.601 217.666 158.828C217.081 159.054 216.447 158.702 216.246 158.041L214.893 153.576L217.034 152.841Z" fill="#DE6647"/>
<path d="M262.465 170.272L244.133 164.725L235.634 200.679L253.966 206.226L262.465 170.272Z" fill="#F4978B"/>
<path fill-rule="evenodd" clip-rule="evenodd" d="M251.066 182.438C252.875 183.709 253.433 186.405 252.309 188.453C251.184 190.502 248.802 191.132 246.992 189.861C246.598 189.584 246.081 189.722 245.837 190.167C245.593 190.612 245.713 191.196 246.107 191.473C248.703 193.297 252.121 192.393 253.733 189.454C255.346 186.516 254.546 182.649 251.95 180.826C251.556 180.549 251.04 180.687 250.796 181.131C250.552 181.576 250.672 182.161 251.066 182.438Z" fill="#DE6647"/>
<path fill-rule="evenodd" clip-rule="evenodd" d="M246.992 189.861C245.18 188.588 244.625 185.894 245.749 183.846C246.874 181.797 249.254 181.165 251.066 182.438C251.458 182.713 251.977 182.577 252.221 182.132C252.465 181.688 252.343 181.101 251.951 180.826C249.353 179.001 245.937 179.907 244.324 182.845C242.712 185.783 243.51 189.648 246.108 191.473C246.499 191.749 247.018 191.613 247.262 191.168C247.507 190.723 247.384 190.136 246.992 189.861Z" fill="#DE6647"/>
<path fill-rule="evenodd" clip-rule="evenodd" d="M242.087 202.631L243.195 197.507C243.343 196.83 243.949 196.414 244.546 196.579C245.146 196.745 245.514 197.43 245.368 198.11L244.249 203.285L242.087 202.631ZM245.126 203.551L245.961 199.937C246.118 199.262 246.729 198.856 247.326 199.033C247.923 199.209 248.281 199.901 248.124 200.576L247.288 204.205L245.126 203.551ZM256.085 168.341L254.733 174.191C254.577 174.866 253.966 175.272 253.369 175.095C252.771 174.918 252.414 174.227 252.57 173.552L253.923 167.687L256.085 168.341ZM252.549 167.271L251.635 171.784C251.498 172.465 250.897 172.89 250.295 172.734C249.693 172.577 249.318 171.899 249.455 171.218L250.388 166.617L252.549 167.271Z" fill="#DE6647"/>
<path d="M244.748 160.999C248.488 160.999 251.519 157.569 251.519 153.338C251.519 149.107 248.488 145.678 244.748 145.678C241.009 145.678 237.977 149.107 237.977 153.338C237.977 157.569 241.009 160.999 244.748 160.999Z" fill="#FFCF84"/>
<path fill-rule="evenodd" clip-rule="evenodd" d="M244.837 148.458C247.283 148.458 249.271 150.707 249.271 153.477C249.271 156.248 247.283 158.497 244.837 158.497C244.601 158.497 244.408 158.714 244.408 158.98C244.408 159.246 244.601 159.462 244.837 159.462C247.754 159.462 250.124 156.78 250.124 153.477C250.124 150.175 247.754 147.493 244.837 147.493C244.601 147.493 244.408 147.71 244.408 147.976C244.408 148.242 244.601 148.458 244.837 148.458Z" fill="#FDA92F"/>
<path fill-rule="evenodd" clip-rule="evenodd" d="M244.837 158.497C242.387 158.497 240.399 156.248 240.399 153.477C240.399 150.707 242.387 148.458 244.837 148.458C245.069 148.458 245.26 148.242 245.26 147.976C245.26 147.71 245.069 147.493 244.837 147.493C241.916 147.493 239.547 150.175 239.547 153.477C239.547 156.78 241.916 159.462 244.837 159.462C245.069 159.462 245.26 159.246 245.26 158.98C245.26 158.714 245.069 158.497 244.837 158.497Z" fill="#FDA92F"/>
<path fill-rule="evenodd" clip-rule="evenodd" d="M243.74 160.915L243.802 159.083C243.81 158.817 244.009 158.609 244.244 158.62C244.481 158.63 244.663 158.854 244.654 159.12L244.59 160.997C244.302 160.99 244.017 160.962 243.74 160.915ZM246.22 160.817L245.803 158.946C245.747 158.688 245.884 158.426 246.114 158.361C246.34 158.296 246.572 158.453 246.631 158.711L247.039 160.549C246.773 160.657 246.499 160.747 246.22 160.817ZM239.117 157.591L240.392 156.453C240.576 156.287 240.844 156.323 240.99 156.532C241.135 156.741 241.104 157.044 240.92 157.209L239.634 158.358C239.449 158.115 239.276 157.859 239.117 157.591ZM238.256 155.521L239.849 154.544C240.056 154.417 240.316 154.504 240.428 154.738C240.54 154.972 240.461 155.265 240.255 155.391L238.555 156.435C238.438 156.139 238.34 155.834 238.256 155.521ZM251.444 154.47L249.907 154.389C249.672 154.377 249.49 154.151 249.502 153.885C249.513 153.619 249.711 153.414 249.946 153.426L251.517 153.508C251.511 153.834 251.486 154.155 251.444 154.47ZM249.485 147.867C249.689 148.093 249.879 148.332 250.058 148.585L248.808 150.037C248.643 150.228 248.375 150.232 248.207 150.047C248.037 149.861 248.034 149.555 248.199 149.365L249.485 147.867ZM241.375 146.696L242.482 148.567C242.614 148.788 242.561 149.087 242.365 149.236C242.169 149.384 241.904 149.324 241.775 149.103L240.665 147.229C240.889 147.035 241.127 146.857 241.375 146.696ZM245.337 145.706C245.622 145.734 245.904 145.782 246.181 145.85L246.013 147.764C245.988 148.029 245.778 148.222 245.546 148.196C245.311 148.169 245.141 147.933 245.163 147.669L245.337 145.706Z" fill="#FDA92F"/>
<path d="M226.451 169.417C226.027 173.621 228.695 177.418 232.41 177.898C236.126 178.378 239.481 175.359 239.906 171.156C240.33 166.952 237.662 163.155 233.947 162.675C230.231 162.195 226.875 165.214 226.451 169.417Z" fill="#FFCF84"/>
<path fill-rule="evenodd" clip-rule="evenodd" d="M237.454 170.939C237.177 173.69 234.976 175.669 232.543 175.354C230.11 175.04 228.36 172.55 228.638 169.8C228.665 169.536 228.497 169.293 228.263 169.263C228.03 169.233 227.818 169.426 227.791 169.691C227.46 172.97 229.546 175.938 232.446 176.312C235.347 176.687 237.97 174.328 238.301 171.049C238.328 170.784 238.16 170.542 237.926 170.512C237.693 170.481 237.481 170.675 237.454 170.939Z" fill="#FDA92F"/>
<path fill-rule="evenodd" clip-rule="evenodd" d="M228.638 169.8C228.916 167.047 231.117 165.067 233.55 165.382C235.983 165.696 237.733 168.186 237.455 170.939C237.428 171.201 237.596 171.439 237.83 171.47C238.064 171.5 238.275 171.31 238.301 171.049C238.633 167.766 236.547 164.798 233.647 164.424C230.746 164.049 228.123 166.408 227.791 169.691C227.765 169.952 227.933 170.191 228.167 170.221C228.4 170.251 228.612 170.061 228.638 169.8Z" fill="#FDA92F"/>
<path fill-rule="evenodd" clip-rule="evenodd" d="M226.64 168.294L228.241 168.571C228.474 168.61 228.634 168.857 228.598 169.12C228.562 169.386 228.344 169.564 228.112 169.525L226.471 169.24C226.51 168.917 226.567 168.599 226.64 168.294ZM226.444 171.092L228.134 170.836C228.367 170.802 228.582 170.986 228.613 171.251C228.644 171.513 228.48 171.756 228.247 171.793L226.587 172.043C226.522 171.732 226.474 171.414 226.444 171.092ZM230.083 163.474L230.938 165.036C231.062 165.262 231 165.559 230.8 165.699C230.601 165.839 230.338 165.77 230.214 165.544L229.351 163.968C229.585 163.788 229.829 163.622 230.083 163.474ZM231.999 162.741L232.676 164.643C232.764 164.889 232.658 165.172 232.44 165.271C232.222 165.37 231.973 165.249 231.885 165.002L231.162 162.973C231.435 162.875 231.714 162.799 231.999 162.741ZM231.425 177.685L231.67 175.966C231.708 175.703 231.927 175.525 232.159 175.567C232.391 175.61 232.549 175.857 232.512 176.119L232.261 177.876C231.976 177.832 231.697 177.768 231.425 177.685ZM237.446 176.231C237.224 176.435 236.992 176.622 236.75 176.794L235.617 175.225C235.468 175.018 235.495 174.716 235.677 174.548C235.859 174.378 236.128 174.409 236.276 174.616L237.446 176.231ZM239.394 167.249L237.626 168.281C237.417 168.403 237.16 168.31 237.052 168.073C236.944 167.836 237.026 167.544 237.235 167.425L239.007 166.39C239.151 166.663 239.281 166.951 239.394 167.249ZM239.814 171.813C239.757 172.131 239.683 172.443 239.592 172.746L237.93 172.34C237.7 172.282 237.554 172.024 237.604 171.767C237.654 171.506 237.88 171.341 238.11 171.396L239.814 171.813Z" fill="#FDA92F"/>
<path d="M213.779 203.747C216.519 206.625 220.803 206.446 223.348 203.345C225.892 200.245 225.733 195.397 222.993 192.519C220.252 189.64 215.968 189.82 213.424 192.92C210.879 196.021 211.038 200.868 213.779 203.747Z" fill="#FFCF84"/>
<path fill-rule="evenodd" clip-rule="evenodd" d="M221.386 194.624C223.179 196.507 223.283 199.686 221.617 201.716C219.95 203.747 217.141 203.865 215.348 201.981C215.175 201.8 214.903 201.809 214.743 202.004C214.583 202.199 214.595 202.507 214.768 202.688C216.906 204.934 220.255 204.793 222.241 202.372C224.227 199.952 224.104 196.163 221.966 193.917C221.793 193.736 221.521 193.745 221.361 193.94C221.201 194.135 221.213 194.443 221.386 194.624Z" fill="#FDA92F"/>
<path fill-rule="evenodd" clip-rule="evenodd" d="M215.348 201.982C213.553 200.096 213.449 196.917 215.115 194.887C216.781 192.857 219.591 192.738 221.386 194.624C221.556 194.803 221.826 194.792 221.986 194.597C222.146 194.402 222.136 194.096 221.966 193.917C219.826 191.669 216.477 191.811 214.491 194.231C212.504 196.651 212.628 200.44 214.768 202.688C214.938 202.867 215.208 202.856 215.368 202.661C215.528 202.466 215.518 202.161 215.348 201.982Z" fill="#FDA92F"/>
<path fill-rule="evenodd" clip-rule="evenodd" d="M213.091 202.909L214.238 201.614C214.404 201.425 214.674 201.426 214.84 201.615C215.008 201.805 215.006 202.109 214.84 202.297L213.664 203.624C213.458 203.396 213.265 203.156 213.091 202.909ZM214.966 204.746L215.787 203.054C215.901 202.822 216.159 202.735 216.366 202.864C216.571 202.991 216.647 203.285 216.535 203.519L215.728 205.18C215.468 205.055 215.214 204.91 214.966 204.746ZM211.701 196.914L213.32 197.061C213.555 197.082 213.73 197.315 213.711 197.58C213.692 197.844 213.487 198.043 213.252 198.022L211.619 197.874C211.63 197.554 211.657 197.233 211.701 196.914ZM212.315 194.734L214.071 195.245C214.299 195.311 214.437 195.575 214.378 195.832C214.319 196.09 214.086 196.244 213.858 196.178L211.985 195.634C212.077 195.327 212.188 195.028 212.315 194.734ZM222.612 204.117L221.534 202.874C221.37 202.684 221.372 202.379 221.54 202.193C221.708 202.006 221.977 202.008 222.142 202.198L223.244 203.468C223.044 203.702 222.833 203.918 222.612 204.117ZM225.147 197.769C225.161 198.092 225.156 198.414 225.135 198.737L223.347 198.839C223.111 198.852 222.912 198.648 222.9 198.383C222.887 198.116 223.069 197.89 223.304 197.877L225.147 197.769ZM219.909 190.669L219.595 192.892C219.558 193.155 219.339 193.333 219.107 193.291C218.874 193.249 218.715 193.001 218.754 192.74L219.068 190.513C219.348 190.543 219.629 190.595 219.909 190.669ZM223.407 192.993C223.599 193.232 223.777 193.485 223.939 193.747L222.665 195.021C222.487 195.196 222.217 195.176 222.063 194.978C221.907 194.778 221.924 194.474 222.1 194.297L223.407 192.993Z" fill="#FDA92F"/>
<path d="M256.161 206.207C259.834 205.417 262.246 201.407 261.548 197.25C260.85 193.094 257.305 190.365 253.631 191.155C249.958 191.945 247.546 195.955 248.244 200.111C248.942 204.268 252.487 206.997 256.161 206.207Z" fill="#FFCF84"/>
<path fill-rule="evenodd" clip-rule="evenodd" d="M254.177 193.867C256.581 193.35 258.905 195.14 259.362 197.862C259.819 200.584 258.238 203.214 255.834 203.73C255.603 203.78 255.448 204.033 255.492 204.295C255.536 204.556 255.762 204.728 255.993 204.678C258.86 204.061 260.744 200.926 260.199 197.682C259.654 194.437 256.884 192.304 254.018 192.92C253.786 192.97 253.632 193.223 253.676 193.484C253.72 193.746 253.946 193.917 254.177 193.867Z" fill="#FDA92F"/>
<path fill-rule="evenodd" clip-rule="evenodd" d="M255.835 203.73C253.428 204.248 251.104 202.458 250.647 199.736C250.19 197.014 251.771 194.385 254.178 193.867C254.406 193.818 254.558 193.565 254.514 193.304C254.47 193.043 254.247 192.871 254.018 192.92C251.149 193.537 249.264 196.672 249.81 199.916C250.355 203.161 253.125 205.295 255.994 204.678C256.222 204.628 256.374 204.376 256.33 204.115C256.286 203.853 256.063 203.681 255.835 203.73Z" fill="#FDA92F"/>
<path fill-rule="evenodd" clip-rule="evenodd" d="M255.156 206.336L254.914 204.524C254.879 204.261 255.039 204.015 255.272 203.976C255.507 203.935 255.722 204.117 255.758 204.38L256.005 206.238C255.721 206.291 255.436 206.324 255.156 206.336ZM257.576 205.717L256.858 203.966C256.76 203.725 256.852 203.438 257.066 203.326C257.278 203.215 257.532 203.32 257.632 203.56L258.336 205.28C258.093 205.443 257.839 205.589 257.576 205.717ZM250.065 204.048L251.13 202.66C251.284 202.459 251.553 202.438 251.731 202.612C251.908 202.786 251.928 203.091 251.774 203.292L250.7 204.692C250.479 204.493 250.266 204.278 250.065 204.048ZM248.878 202.196L250.282 200.9C250.464 200.732 250.734 200.762 250.882 200.968C251.031 201.174 251.002 201.479 250.82 201.647L249.323 203.031C249.158 202.766 249.012 202.486 248.878 202.196ZM261.661 198.377L260.137 198.623C259.904 198.66 259.689 198.477 259.656 198.213C259.623 197.95 259.784 197.706 260.017 197.668L261.574 197.417C261.622 197.738 261.65 198.059 261.661 198.377ZM258.646 192.305C258.884 192.483 259.11 192.678 259.327 192.889L258.34 194.579C258.209 194.802 257.946 194.863 257.751 194.716C257.553 194.569 257.499 194.27 257.63 194.048L258.646 192.305ZM250.486 192.868L251.882 194.472C252.048 194.661 252.045 194.966 251.877 195.153C251.709 195.34 251.439 195.338 251.276 195.148L249.876 193.541C250.064 193.304 250.268 193.079 250.486 192.868ZM254.214 191.058C254.499 191.026 254.784 191.013 255.067 191.021L255.218 192.937C255.237 193.202 255.063 193.437 254.831 193.46C254.596 193.484 254.389 193.287 254.368 193.023L254.214 191.058Z" fill="#FDA92F"/>
<path fill-rule="evenodd" clip-rule="evenodd" d="M238.173 205.678L205.372 270.301H191.881C191.881 270.301 187.736 280.32 194.017 283.989H255.893C255.957 283.989 256.018 283.995 256.083 284.005C257.315 284.106 264.357 283.878 269.928 267.546C278.98 241.018 288.154 225.714 297.421 205.678H238.173Z" fill="#E9E9EB"/>
<path d="M224.79 265.161C230.162 266.026 235.913 261.911 237.636 255.97C239.358 250.029 236.4 244.511 231.028 243.646C225.656 242.782 219.905 246.897 218.183 252.838C216.46 258.779 219.418 264.296 224.79 265.161Z" fill="white"/>
<path d="M290.117 209.112L239.186 208.5L237.005 213L287.937 213.612L290.117 209.112Z" fill="#BABDC2"/>
<path d="M286.697 217.412L235.527 216.892L233.353 221.396L284.523 221.916L286.697 217.412Z" fill="#BABDC2"/>
<path d="M282.747 226.428L231.412 224.917L229.173 229.378L280.509 230.889L282.747 226.428Z" fill="#BABDC2"/>
<path d="M278.659 235.364L227.592 232.86L225.29 237.276L276.358 239.779L278.659 235.364Z" fill="#BABDC2"/>
<path d="M273.155 244.633L245.896 243.078L243.984 247.384L271.244 248.939L273.155 244.633Z" fill="#BABDC2"/>
<path d="M268.648 253.752L250.239 252.501L248.645 256.827L267.054 258.079L268.648 253.752Z" fill="#BABDC2"/>
<path d="M264.959 262.924L240.537 260.865L239.203 265.213L263.626 267.272L264.959 262.924Z" fill="#BABDC2"/>
<path fill-rule="evenodd" clip-rule="evenodd" d="M206.599 267.881H250.797C250.847 267.881 250.897 267.888 250.948 267.894C251.423 267.967 251.823 268.261 252.007 268.944C252.097 269.273 252.105 269.928 251.99 270.813C251.585 273.985 249.777 281.99 257.017 283.973C256.589 284.027 256.267 284.017 256.083 284.005C256.019 283.995 255.957 283.989 255.893 283.989H252.111C251.865 283.742 251.638 283.483 251.429 283.214C248.879 279.937 249.153 275.193 249.567 272.015C249.637 271.468 249.707 270.876 249.76 270.411L205.372 270.301L206.599 267.881Z" fill="black"/>
<path d="M223.397 256.52C224.159 257.639 225.241 258.342 226.647 258.672C228.337 259.023 229.359 258.58 229.767 257.354C230.071 256.348 229.693 255.617 228.634 255.161C228.131 254.97 227.593 254.771 227.006 254.54C225.959 254.108 225.24 253.484 224.861 252.692C224.47 251.878 224.432 250.979 224.73 249.992C225.085 248.815 225.734 247.946 226.712 247.392C227.654 246.829 228.795 246.696 230.123 246.967C231.722 247.36 232.973 248.141 233.881 249.292L232.285 250.742C231.526 249.867 230.566 249.271 229.413 248.997C228.816 248.866 228.263 248.906 227.767 249.142C227.253 249.373 226.887 249.818 226.674 250.46C226.554 250.858 226.595 251.232 226.788 251.618C226.98 252.005 227.388 252.317 227.981 252.589C228.308 252.722 228.774 252.905 229.367 253.116C230.528 253.554 231.278 254.204 231.634 255.072C231.977 255.917 232.015 256.816 231.723 257.784C230.889 260.353 228.973 261.328 226.01 260.718C224.109 260.3 222.65 259.311 221.647 257.775L223.397 256.52Z" fill="black"/>
<path fill-rule="evenodd" clip-rule="evenodd" d="M230.497 245.218L224.013 261.835L225.514 262.353L232.054 245.59L230.497 245.218Z" fill="black"/>
<path fill-rule="evenodd" clip-rule="evenodd" d="M368.527 241.345C367.798 240.441 366.825 239.938 366.034 240.526C363.255 242.591 361.36 244.796 358.635 246.943C350.209 253.585 338.39 255.435 333.166 266.33C327.869 277.368 327.6 290.895 322.887 302.366C316.539 317.825 307.451 331.541 300.72 346.772C292.384 365.625 279.402 406.967 279.402 406.967C275.209 406.898 254.532 409.95 241.961 412.144C241.483 412.227 241.145 412.714 241.181 413.258C241.218 413.805 241.62 414.226 242.104 414.226C271.74 414.226 358.64 414.226 378.856 414.226C379.888 414.226 380.841 413.602 381.358 412.594C381.875 411.585 381.881 410.339 381.366 409.327C378.778 404.206 374.297 401.205 369.307 399.807C365.469 398.732 361.765 399.26 357.899 399.63C357.754 399.643 357.569 399.671 357.458 399.541C357.43 399.51 357.391 399.453 357.374 399.415C356.348 397.005 356.896 383.323 356.929 380.246C357.072 367.425 357.578 354.565 358.551 341.788C358.864 337.686 359.512 325.893 359.512 325.893C359.512 325.893 368.228 324.536 370.73 323.894C376.891 322.319 381.923 317.806 385.445 311.936C390.669 303.229 391.008 291.404 393.373 281.498C395.349 273.206 399.047 266.745 402.209 259.138C403.85 255.191 403.271 249.359 399.478 247.237C395.768 245.159 391.88 249.502 389.546 252.279C382.118 261.128 381.738 273.304 375.393 282.08C370.892 288.301 361.813 289.443 361.813 289.443C361.813 289.443 361.533 281.856 361.813 279.749C363.213 269.208 368.466 262.507 370.604 252.807C371.222 249.998 370.873 244.242 368.527 241.345Z" fill="#DD6140"/>
<path fill-rule="evenodd" clip-rule="evenodd" d="M347.604 330.266C351.646 327.929 359.512 325.893 359.512 325.893C359.512 325.893 359.305 329.669 359.068 333.688C356.035 332.446 352.233 332.079 348.034 332.158C347.626 332.164 347.266 331.851 347.165 331.405C347.062 330.956 347.243 330.485 347.604 330.266Z" fill="black"/>
<path fill-rule="evenodd" clip-rule="evenodd" d="M351.612 255.444L353.407 256.94C353.905 257.354 354.606 257.234 354.972 256.671C355.339 256.112 355.232 255.318 354.735 254.903L352.94 253.407C352.443 252.993 351.744 253.113 351.378 253.673C351.011 254.236 351.115 255.03 351.612 255.444Z" fill="black"/>
<path fill-rule="evenodd" clip-rule="evenodd" d="M357.22 398.924C357.145 398.792 357.092 398.643 357.061 398.478C354.735 385.1 351.621 375.945 348.096 369.869C344.716 364.043 340.985 361.124 337.25 360.087C329.716 357.99 322.306 363.424 318.183 367.222C316.304 368.949 314.884 370.638 314.884 370.638C314.669 370.938 314.334 371.121 313.965 371.102C313.35 371.068 312.872 370.473 312.902 369.777C312.902 369.758 312.877 369.376 313.229 368.936C313.467 368.642 314.753 367.118 316.771 365.258C321.3 361.083 329.504 355.327 337.784 357.63C341.957 358.79 346.187 361.966 349.966 368.481C352.479 372.81 354.805 378.645 356.795 386.391C356.714 391.056 356.706 396.786 357.22 398.924ZM337.803 261.817C337.803 261.817 334.181 272.114 331.947 278.471C330.608 282.273 332.006 286.606 335.19 288.544C336.641 289.433 338.111 290.091 339.598 290.505C341.616 291.075 343.755 290.556 345.393 289.107C347.034 287.656 347.99 285.432 347.99 283.076C347.99 275.103 347.99 262.282 347.99 262.282C347.99 261.586 347.489 261.017 346.872 261.017C346.257 261.017 345.753 261.586 345.753 262.282C345.753 262.282 345.753 275.103 345.753 283.076C345.753 284.654 345.113 286.141 344.015 287.112C342.919 288.086 341.488 288.431 340.135 288.051C338.824 287.684 337.532 287.102 336.252 286.318C334.063 284.987 333.107 282.014 334.024 279.408C336.26 273.051 339.883 262.75 339.883 262.75C340.11 262.102 339.83 261.365 339.257 261.108C338.681 260.849 338.033 261.165 337.803 261.817ZM361.74 286.916C361.774 288.367 361.813 289.443 361.813 289.443C361.813 289.443 361.992 289.421 362.313 289.367C360.932 289.686 359.655 289.822 358.456 289.81C357.838 289.803 357.343 289.231 357.349 288.535C357.354 287.836 357.857 287.273 358.475 287.279C359.493 287.289 360.575 287.175 361.74 286.916ZM401.831 249.596C402.248 250.308 402.555 251.105 402.76 251.943C398.513 255.422 395.338 260.719 395.187 261.033C394.893 261.646 394.214 261.874 393.672 261.542C393.129 261.21 392.928 260.441 393.222 259.828C393.389 259.473 397.021 253.411 401.831 249.596ZM397.692 246.699C398.287 246.737 398.885 246.905 399.478 247.237C399.724 247.373 399.956 247.528 400.177 247.696C398.371 249.252 394.7 252.794 390.935 258.664C390.574 259.227 389.873 259.353 389.375 258.942C388.875 258.534 388.763 257.74 389.126 257.177C392.386 252.095 395.587 248.673 397.692 246.699ZM362.322 243.698C363.482 242.623 364.647 241.557 366.034 240.526C366.825 239.938 367.798 240.44 368.527 241.345C369.081 242.028 369.523 242.869 369.869 243.796C366.694 247.525 363.185 244.539 362.322 243.698Z" fill="black"/>
<defs>
<linearGradient id="paint0_linear_52_1589" x1="155.859" y1="320.126" x2="448.252" y2="167.737" gradientUnits="userSpaceOnUse">
<stop stop-color="#B8D8D5"/>
<stop offset="0.42" stop-color="#CEE0DA"/>
<stop offset="1" stop-color="#FFF0E6"/>
</linearGradient>
<linearGradient id="paint1_linear_52_1589" x1="65.186" y1="99.0309" x2="-91.9641" y2="273.08" gradientUnits="userSpaceOnUse">
<stop stop-color="#B8D8D5"/>
<stop offset="0.47" stop-color="#CCDFDA"/>
<stop offset="1" stop-color="#FFF0E6"/>
</linearGradient>
<linearGradient id="paint2_linear_52_1589" x1="465.745" y1="139.795" x2="559.846" y2="220.789" gradientUnits="userSpaceOnUse">
<stop stop-color="#FFBF2F"/>
<stop offset="1" stop-color="#FD9500"/>
</linearGradient>
<linearGradient id="paint3_linear_52_1589" x1="523.262" y1="312.973" x2="376.066" y2="225.28" gradientUnits="userSpaceOnUse">
<stop stop-color="#FFBF2F"/>
<stop offset="0.48" stop-color="#FEB422"/>
<stop offset="1" stop-color="#FD9500"/>
</linearGradient>
</defs>
</svg>
