<svg width="258" height="209" viewBox="0 0 258 209" fill="none" xmlns="http://www.w3.org/2000/svg">
<g filter="url(#filter0_d_52_1314)">
<path d="M215.588 87.8855H33.5518V200.295H215.588V87.8855Z" fill="#FFF0E6"/>
<path fill-rule="evenodd" clip-rule="evenodd" d="M209.613 163.616H181.506V191.192H209.613V163.616ZM174.648 141.913H146.542V191.192H174.648V141.913ZM139.684 132.559H111.578V191.192H139.684V132.559ZM104.719 121.43H76.6134V191.192H104.719V121.43ZM69.7549 171.493H41.6489V191.192H69.7549V171.493Z" fill="#FFA396"/>
<path fill-rule="evenodd" clip-rule="evenodd" d="M202.792 126.956L204.173 123.328L213.484 135.62L198.659 137.809L200.117 133.98L119.36 99.5098L111.882 113.205L98.238 106.025L70.5676 179.199L51.8817 169.601C47.9117 176.455 44.6151 182.41 42.0129 186.291L36.1138 181.941C39.0212 177.606 42.8021 170.621 47.4477 162.708L49.1642 159.785L66.738 168.812L94.4362 95.5643L109.016 103.237L116.236 90.0122L202.792 126.956Z" fill="#CD0000"/>
<path fill-rule="evenodd" clip-rule="evenodd" d="M197.569 123.084L196.113 48.8881L137.882 35.9101L74.8782 21.4738C63.6363 18.8979 51.9235 19.4646 40.9695 23.1142L28.4934 27.271L11.2845 49.8173C10.9534 50.251 10.3402 50.3283 9.91589 49.9897C9.49175 49.651 9.4162 49.0238 9.74733 48.5901L27.323 25.5634L40.3655 21.2179C51.6523 17.4575 63.7209 16.8736 75.3045 19.5278C98.9596 24.9478 138.306 33.9633 138.3 33.9621L198.032 47.2746L199.526 123.459L200.817 121.746C200.996 121.508 201.332 121.463 201.565 121.647C201.797 121.831 201.841 122.173 201.661 122.411L199.561 125.2L199.733 133.972C199.743 134.522 199.316 134.977 198.777 134.99C198.24 135.001 197.794 134.562 197.783 134.013L197.605 124.889L195.695 122.417C195.513 122.181 195.552 121.838 195.783 121.651C196.014 121.464 196.349 121.505 196.531 121.741L197.569 123.084Z" fill="black"/>
<path fill-rule="evenodd" clip-rule="evenodd" d="M61.5111 43.5676C61.5111 43.5676 44.4756 48.9783 31.1488 53.211C27.5519 54.3533 24.7043 57.2103 23.5028 60.8821C22.3012 64.5537 22.8939 68.5878 25.0939 71.7138C29.985 78.6632 34.9265 85.684 34.9265 85.684C34.9265 85.684 32.7043 86.3642 32.9338 87.8593L58.9616 88.1968L48.7333 72.7109C48.7333 72.7109 70.8492 70.9955 76.5273 67.9434L110.25 85.7517C110.25 85.7517 106.338 86.4136 106.127 88.2427L125.406 87.9763C125.406 87.9763 130.583 83.6664 132.718 81.8876C132.935 81.7072 133.058 81.4337 133.052 81.1478C133.045 80.8619 132.91 80.596 132.685 80.4284C126.169 75.5472 87.7172 46.9089 80.2811 45.322C80.2811 45.322 72.9099 40.4216 61.5111 43.5676Z" fill="url(#paint0_linear_52_1314)"/>
<path fill-rule="evenodd" clip-rule="evenodd" d="M79.988 45.3481C80.1811 45.4586 80.2802 45.5238 80.2802 45.5238C80.9448 45.6643 81.8573 46.019 82.9716 46.5512C84.0747 47.7655 85.1196 49.355 85.7252 51.3728C86.3107 53.3237 86.4897 55.6781 85.9012 58.4843L118.449 78.1967L124.143 74.0228L124.469 74.2593C124.604 74.3579 124.74 74.4565 124.874 74.5551L125.056 74.6872L109.937 85.7701C109.741 85.9139 109.481 85.9029 109.3 85.7602C109.844 85.6129 110.236 85.547 110.236 85.547L109.202 85.0059C109.234 84.9629 109.272 84.9237 109.318 84.8905L117.504 78.8893L85.6357 59.5882C85.5336 59.965 85.418 60.3496 85.288 60.7419C84.4922 63.144 82.4415 66.2268 77.7178 68.5396L76.5242 67.9153C75.8055 68.2977 74.8234 68.6588 73.6572 68.9976C73.6984 68.9699 73.7442 68.9475 73.7938 68.9318C80.648 66.77 83.3701 63.1438 84.2794 60.3994C85.4566 56.846 85.3909 53.9744 84.7068 51.6947C83.7392 48.4705 81.5473 46.4401 79.988 45.3481ZM74.4 43.3063C74.8094 43.3952 75.1997 43.491 75.5702 43.5915C75.6363 43.9107 75.6819 44.2328 75.7319 44.5262C75.9771 45.9649 76.1364 47.4007 76.0523 48.8648C75.789 53.4478 74.0044 57.8774 69.6877 59.8396C67.0928 61.0191 63.9963 61.498 61.1699 61.4495C58.8263 61.4091 55.9942 61.1404 53.6686 60.9704C48.3563 60.582 43.9582 59.9244 37.6543 60.7072C35.4224 60.9844 33.7495 61.7819 32.7816 63.1563C31.8107 64.535 31.5674 66.4683 32.1027 68.9485C32.4719 70.6586 33.2022 72.2401 34.012 73.7713C35.2622 76.1348 36.5455 78.5671 38.0366 80.7859L53.6704 80.0298L54.3719 81.0817L38.3028 81.8588C38.2723 81.8976 38.2362 81.9326 38.1944 81.9627C37.9763 82.1202 37.6822 82.0875 37.5033 81.8976L32.5611 82.1366L31.815 81.0868L36.7907 80.8462C35.4327 78.7494 34.2383 76.4906 33.0741 74.2895C32.2178 72.6704 31.4532 70.9949 31.0627 69.1864C30.4464 66.3308 30.7998 64.1139 31.9175 62.5266C33.0383 60.9351 34.9461 59.9512 37.5306 59.6303C43.9151 58.8374 48.3696 59.4949 53.7498 59.8883C56.0575 60.057 58.8676 60.3247 61.1931 60.3647C63.8686 60.4107 66.8014 59.9658 69.2579 58.8491C73.1919 57.061 74.7494 52.9832 74.9894 48.8065C75.0686 47.4262 74.9139 46.0732 74.6829 44.7168C74.6076 44.2756 74.5717 43.7456 74.4 43.3063Z" fill="#D7441E"/>
<path fill-rule="evenodd" clip-rule="evenodd" d="M49.5754 73.8922L49.7851 74.2076L49.7618 74.2147C49.7017 74.1067 49.6395 73.9991 49.5754 73.8922ZM48.9024 72.881C46.187 69.1645 41.3373 66.1492 38.7678 64.7166C38.5691 64.6068 38.4717 64.3709 38.533 64.1478C38.5943 63.9249 38.798 63.7741 39.0243 63.784C45.0897 64.2877 51.5029 70.1223 53.5597 72.1466C50.6631 72.4375 48.7074 72.5878 48.7074 72.5878L48.9024 72.881Z" fill="#711801"/>
<path d="M48.5737 15.2736C51.6803 15.3427 54.2712 12.8051 54.3605 9.60565C54.4498 6.4062 52.0038 3.7565 48.8971 3.68739C45.7904 3.61828 43.1996 6.15592 43.1103 9.35537C43.021 12.5548 45.467 15.2045 48.5737 15.2736Z" fill="#E86135"/>
<path fill-rule="evenodd" clip-rule="evenodd" d="M46.2176 4.34158C47.0213 3.92331 47.9338 3.69635 48.8957 3.7188C52.0006 3.79109 54.4518 6.433 54.3661 9.61492C54.3006 12.0427 52.7771 14.0877 50.6794 14.8886L49.3027 11.6344C49.5284 11.6571 49.7684 11.6215 50.0019 11.5192C50.7143 11.207 51.0976 10.391 50.8574 9.69823C50.6172 9.00531 49.8437 8.69632 49.1314 9.00854C48.8401 9.13613 48.6039 9.34809 48.4427 9.60138L46.2176 4.34158Z" fill="black"/>
<path fill-rule="evenodd" clip-rule="evenodd" d="M61.4547 17.813C54.9403 17.0756 40.6685 17.8134 29.2223 18.7612C27.0652 18.9412 25.0623 20.0065 23.6636 21.718C22.2648 23.4295 21.5875 25.6437 21.7837 27.8635C21.936 29.5287 22.329 31.2123 23.1378 32.6789C23.1378 32.6789 21.9709 36.0549 25.5171 38.4453C26.5907 39.1669 27.8168 39.6142 29.0949 39.7503C31.8305 40.0158 39.2061 40.5172 49.1336 39.4663C49.1336 39.4663 58.0103 46.8204 67.8092 40.9204C75.5851 36.2386 76.7481 19.5442 61.4547 17.813Z" fill="url(#paint1_linear_52_1314)"/>
<path fill-rule="evenodd" clip-rule="evenodd" d="M23.1194 32.6556C24.8136 33.8974 27.7707 35.4647 31.2284 35.6201C38.1801 35.9332 57.0707 36.7821 57.0707 36.7821C57.3644 36.7953 57.5911 37.0466 57.5766 37.343C57.562 37.6392 57.3118 37.869 57.0182 37.8558C57.0182 37.8558 38.1274 37.0069 31.1756 36.6937C28.0912 36.5551 25.2045 35.3291 22.9802 33.2961C23.0343 32.8971 23.1194 32.6556 23.1194 32.6556Z" fill="#D7441E"/>
<path fill-rule="evenodd" clip-rule="evenodd" d="M43.8656 17.8953C50.9823 17.5772 57.5767 17.5109 61.4433 17.953C76.7532 19.7035 75.9038 36.2906 68.0277 40.7272C59.2922 45.6479 51.1889 42.3844 48.7802 39.4647C48.1024 38.6433 47.6881 36.3649 47.6881 36.3649L42.4526 36.0688L36.2994 27.9395L43.8656 17.8953Z" fill="#D7441E"/>
<path fill-rule="evenodd" clip-rule="evenodd" d="M47.6933 36.3769C47.6933 36.3769 53.3169 36.3085 56.4065 36.371C56.5462 36.3738 56.663 36.4791 56.683 36.6201C56.7029 36.761 56.62 36.8961 56.4869 36.9397L48.7794 39.4637C48.1052 38.637 47.6933 36.3769 47.6933 36.3769Z" fill="#711801"/>
<path fill-rule="evenodd" clip-rule="evenodd" d="M151.031 39.2828C151.142 39.3886 145.759 46.7367 135.823 42.8203C134.012 42.1066 125.651 35.9489 131.495 24.5108C133.058 21.4526 139.838 12.4451 154.934 17.9951C156.733 18.6563 159.963 20.1455 165.724 24.5108C167.868 26.1356 184.402 40.9564 193.79 44.7763C195.66 45.5374 195.969 45.7637 197.635 46.5801C198.105 46.811 198.558 47.6991 196.761 48.0922C196.761 48.0922 198.536 48.0018 197.781 49.3467C197.781 49.3467 196.633 50.9576 195.927 51.9482C195.559 52.4643 194.964 52.7615 194.341 52.7426C193.798 52.7256 193.192 52.6505 192.904 52.4104C192.904 52.4104 191.657 54.2637 188.949 52.8256C188.949 52.8256 187.797 55.6423 182.421 52.4104C180.175 51.06 178.4 50.2126 176.614 49.5089V52.4104L224.249 73.1697C224.249 73.1697 225.943 72.7705 228.609 73.1697L213.185 87.9939L175.296 77.9602V85.1298C175.296 85.1298 178.465 86.1705 178.838 87.9939H153.862V76.1658C153.862 76.1658 130.084 78.4235 134.466 59.0023C134.883 57.1532 140.692 43.6409 153.862 40.722L151.031 39.2828Z" fill="url(#paint2_linear_52_1314)"/>
<path fill-rule="evenodd" clip-rule="evenodd" d="M177.028 66.3024V66.3019L204.211 76.6257L209.887 66.9113L210.877 67.3427L205.033 77.3426C205.032 77.3975 205.02 77.4529 205.001 77.5071C204.957 77.6278 204.876 77.7234 204.776 77.7848L200.736 84.6973L199.66 84.4125L203.654 77.5774L176.964 67.4406V67.4405L176.996 66.8774L177.028 66.3024ZM134.027 61.6163C134.414 63.2268 135.422 64.7149 137.109 65.0357C139.167 65.4271 141.484 64.1227 143.178 63.0707C145.378 61.7037 146.971 59.8585 148.462 57.9129C150.005 55.8987 151.438 53.777 153.267 51.9252C154.142 51.0404 155.337 50.0934 156.611 49.6771C157.531 49.3766 158.491 49.3455 159.418 49.7594C160.607 50.2904 161.572 51.3856 162.297 52.7012C163.335 54.5874 163.881 56.9191 163.969 58.5013C164.377 65.9199 164.195 72.7434 164.054 80.1301L175.297 80.163V81.2533L153.862 81.1904V80.1002L162.988 80.1269C163.128 72.762 163.312 65.9593 162.904 58.5627C162.824 57.1095 162.321 54.9683 161.368 53.2358C160.764 52.1389 159.983 51.2013 158.992 50.7584C158.132 50.3747 157.234 50.5393 156.404 50.9269C155.493 51.3526 154.66 52.0495 154.018 52.7C152.22 54.519 150.817 56.6067 149.302 58.5853C147.732 60.6326 146.045 62.5639 143.731 64.0025C141.837 65.1791 139.216 66.5454 136.913 66.1076C135.624 65.862 134.628 65.0826 133.938 64.0562C133.909 63.291 133.937 62.4786 134.027 61.6163ZM176.614 52.4105L177.593 52.8369L176.974 67.1799L176.312 78.2292L175.297 77.9604V79.3466C175.227 79.2476 175.19 79.1246 175.198 78.9939C175.198 78.9939 176.597 57.3653 176.601 51.1103L176.602 51.0667C176.606 51.0084 176.61 50.9503 176.614 50.8933V52.4105ZM152.364 39.9611C152.76 39.884 153.403 39.7643 154.225 39.6319L150.489 36.3407C150.267 36.1445 150.241 35.8 150.433 35.572C150.625 35.344 150.962 35.3184 151.185 35.5146L155.451 39.2725C155.503 39.3177 155.543 39.3709 155.574 39.4285C157.627 39.14 160.316 38.8578 163.027 38.8485C166.85 38.8354 170.703 39.3883 172.961 41.1478C174.096 42.0329 177.593 44.8181 177.7 49.9563C177.337 49.7993 176.976 49.6513 176.614 49.509V49.5355C176.328 45.1671 173.308 42.7905 172.314 42.0147C170.209 40.3731 166.597 39.9266 163.029 39.9387C158.665 39.9537 154.355 40.6906 152.773 40.9916C153.13 40.8941 153.493 40.804 153.862 40.7222L152.364 39.9611ZM176.964 67.4405L176.974 67.1799L177.028 66.3024L176.996 66.8774L176.964 67.4405Z" fill="#FD9500"/>
<path fill-rule="evenodd" clip-rule="evenodd" d="M188.248 53.5804L185.507 51.7262C185.261 51.5603 185.194 51.2218 185.357 50.9708C185.518 50.7199 185.85 50.6508 186.095 50.8168L189.357 53.0229C189.225 52.9654 189.089 52.8999 188.949 52.8257C188.949 52.8257 188.776 53.2502 188.248 53.5804ZM192.126 53.0677L188.19 50.3148C187.946 50.1451 187.885 49.8055 188.05 49.5572C188.216 49.3087 188.548 49.245 188.791 49.4148L193.387 52.6286C193.191 52.5783 193.02 52.508 192.904 52.4104C192.904 52.4104 192.651 52.7859 192.126 53.0677ZM197.959 48.6545C197.046 48.4336 196.466 48.4506 196.102 48.5615C196.022 48.5861 195.954 48.6186 195.902 48.6501L196.233 48.9674C196.447 49.1731 196.459 49.5183 196.258 49.7379C196.057 49.9574 195.719 49.9686 195.504 49.7628L193.364 47.7106C193.149 47.505 193.137 47.1596 193.339 46.9401C193.54 46.7207 193.878 46.7095 194.093 46.9152L195.102 47.882C195.477 47.5467 196.28 47.1896 197.929 47.532C197.76 47.747 197.404 47.9514 196.761 48.0923C196.761 48.0923 197.844 48.0371 197.959 48.6545Z" fill="#FD9500"/>
<path fill-rule="evenodd" clip-rule="evenodd" d="M151.107 39.3216L151.031 39.2828C151.142 39.3886 145.759 46.7367 135.823 42.8203C134.012 42.1066 125.651 35.9489 131.495 24.5108C133.058 21.4526 139.838 12.4451 154.934 17.9951C156.328 18.5072 158.579 19.5157 162.198 21.9718C162.655 23.8576 162.592 27.0655 157.773 28.753C157.773 28.753 160.367 35.5151 152.593 36.5849C152.593 36.5849 152.129 37.8583 151.107 39.3216Z" fill="#FD9500"/>
<path fill-rule="evenodd" clip-rule="evenodd" d="M149.81 76.1956L153.812 59.8721C153.854 59.7032 154.012 59.5936 154.182 59.6183C154.351 59.6429 154.473 59.7939 154.467 59.9679L153.856 76.1664C153.754 76.1758 152.112 76.3207 149.81 76.1956ZM151.029 39.3035C150.93 39.4131 150.828 39.509 150.725 39.586C150.725 39.586 146.048 33.7149 143.676 30.7379C143.576 30.6125 143.581 30.431 143.689 30.3123C143.796 30.1935 143.973 30.1738 144.102 30.2661C146.553 31.9692 150.858 35.0363 152.484 36.6679C152.484 36.6679 151.835 38.406 151.042 39.2888L151.031 39.283C151.034 39.2855 151.033 39.2925 151.029 39.3035Z" fill="#D7441E"/>
<path fill-rule="evenodd" clip-rule="evenodd" d="M128.614 9.45631C128.513 9.50428 128.65 9.23077 128.654 9.11684C128.662 8.90438 128.665 8.69179 128.67 8.47933C128.685 7.8624 128.661 7.24561 128.665 6.62868C128.674 5.36688 128.404 1.77785 129.848 1.16011C130.568 0.852389 130.761 2.2183 130.772 2.67552C130.813 4.44277 129.614 5.79207 129.366 7.4413C129.354 7.52334 129.422 7.28526 129.452 7.20854C129.516 7.04991 129.578 6.89019 129.644 6.73252C129.834 6.28607 130.024 5.84071 130.221 5.39795C130.844 3.99973 131.449 2.49699 132.371 1.27008C132.589 0.978307 133.23 0.191302 133.671 0.535404C134.327 1.04754 133.437 2.49726 133.146 2.98705C132.508 4.06092 131.682 5.00261 130.993 6.04023C130.293 7.09134 129.73 8.25965 129.015 9.29114" fill="#FFB000"/>
<path d="M134.02 17.3403C137.189 17.3403 139.758 14.7132 139.758 11.4724C139.758 8.23156 137.189 5.60437 134.02 5.60437C130.852 5.60437 128.283 8.23156 128.283 11.4724C128.283 14.7132 130.852 17.3403 134.02 17.3403Z" fill="#FFB000"/>
<path d="M121.66 14.9646C125.701 14.9646 128.976 11.6146 128.976 7.48228C128.976 3.34993 125.701 0 121.66 0C117.62 0 114.344 3.34993 114.344 7.48228C114.344 11.6146 117.62 14.9646 121.66 14.9646Z" fill="black"/>
<path fill-rule="evenodd" clip-rule="evenodd" d="M129.551 15.1508C128.757 14.1441 128.283 12.8645 128.283 11.4721C128.283 8.2336 130.853 5.60425 134.019 5.60425C134.853 5.60425 135.645 5.78631 136.36 6.11393C136.21 8.11722 135.144 12.0484 129.551 15.1508Z" fill="black"/>
<path fill-rule="evenodd" clip-rule="evenodd" d="M131.369 96.7793C131.369 96.7793 128.879 96.389 130.624 93.8857C131.127 93.166 133.225 92.1862 134.469 95.1608C134.469 95.1608 136.781 94.0397 137.362 97.0135C137.362 97.0135 139.52 95.9455 140.261 98.9443C140.261 98.9443 142.452 98.6588 142.741 101.735C143.173 106.324 143.531 109.62 143.795 113.275C143.795 113.275 144.455 120.289 149.341 124.627C149.341 124.627 152.288 114.598 162.998 117.875L172.974 121.908C172.974 121.908 178.619 119.947 181.328 123.98C183.228 122.511 186.294 119.9 187.127 119.112C187.538 118.724 188.374 118.405 188.818 118.649C189.19 118.853 189.44 119.592 189.003 120.086C189.003 120.086 189.928 119.295 190.688 119.957C190.982 120.213 191.225 120.739 190.834 121.658C190.834 121.658 191.79 120.764 192.49 121.37C192.765 121.606 193.253 122.2 192.608 123.207C192.608 123.207 193.64 122.36 194.312 123.029C194.611 123.326 194.86 123.939 193.093 126.194C192.613 126.805 192.124 127.41 191.626 128.01C187.05 133.583 179.504 135.544 172.882 132.877C168.632 131.174 164.717 129.597 164.717 129.597C164.717 129.597 170.139 139.668 170.102 145.498C170.07 150.692 167.864 156.087 161.56 157.656C160.1 158.021 158.579 158.063 157.101 157.778C152.972 156.985 143.796 153.996 144.845 143.156C144.845 143.156 136.998 137.906 131.821 129.372C127.831 122.807 126.824 114.795 129.059 107.411C130.203 103.619 131.524 98.7259 131.369 96.7793Z" fill="#A8CFCC"/>
<path fill-rule="evenodd" clip-rule="evenodd" d="M188.212 128.1C188.212 128.1 192.663 123.121 192.608 123.207C192.608 123.207 193.328 122.616 193.957 122.809C193.951 122.816 193.947 122.821 193.942 122.827L188.805 128.647C188.657 128.815 188.404 128.827 188.24 128.676C188.076 128.526 188.064 128.267 188.212 128.1ZM186.2 126.744C186.2 126.744 190.841 121.641 190.834 121.658C190.834 121.658 191.615 120.927 192.284 121.235L186.786 127.3C186.637 127.464 186.384 127.475 186.221 127.321C186.06 127.167 186.051 126.908 186.2 126.744ZM189.021 120.073C189.131 119.984 189.767 119.513 190.387 119.767L184.929 125.79C184.778 125.956 184.525 125.965 184.364 125.811C184.201 125.659 184.192 125.4 184.342 125.234L189.021 120.073Z" fill="#82B5B2"/>
<path fill-rule="evenodd" clip-rule="evenodd" d="M140.019 101.579C140.203 100.649 140.253 98.912 140.261 98.9445C140.261 98.9445 140.603 98.8999 141.033 99.0354C141.025 99.7138 140.981 100.843 140.802 101.741C140.758 101.963 140.548 102.106 140.332 102.061C140.115 102.016 139.975 101.799 140.019 101.579ZM138.159 96.83C138.235 97.5265 138.293 98.7282 138.081 100.262C138.051 100.485 137.848 100.641 137.63 100.609C137.411 100.578 137.259 100.371 137.29 100.147C137.482 98.7567 137.439 97.66 137.374 97.0081C137.436 96.9789 137.752 96.8435 138.159 96.83ZM134.598 99.0197C134.839 96.8282 134.424 95.0518 134.469 95.161C134.469 95.161 134.775 95.0126 135.192 94.967C135.383 95.7346 135.608 97.1532 135.392 99.1111C135.367 99.3353 135.17 99.4969 134.95 99.4717C134.731 99.4465 134.573 99.244 134.598 99.0197ZM130.655 96.5137C130.693 95.9003 130.705 95.4969 130.705 95.4969C130.713 95.2714 130.896 95.0939 131.118 95.1011C131.338 95.1082 131.511 95.2971 131.504 95.5227C131.504 95.5227 131.397 97.1299 131.369 96.7794C131.369 96.7794 131.007 96.7226 130.655 96.5137Z" fill="#82B5B2"/>
<path fill-rule="evenodd" clip-rule="evenodd" d="M143.779 113.048L143.795 113.275C143.795 113.275 144.455 120.289 149.341 124.627C149.341 124.627 152.289 114.598 162.998 117.875L170.697 120.989L172.639 132.779C168.484 131.114 164.717 129.597 164.717 129.597C164.717 129.597 170.139 139.668 170.102 145.498C170.07 150.692 167.864 156.087 161.56 157.656C160.1 158.021 158.579 158.063 157.102 157.778C152.972 156.985 143.796 153.996 144.845 143.156C144.845 143.156 136.998 137.906 131.821 129.372C128.888 124.544 127.566 118.935 127.961 113.368L143.779 113.048Z" fill="#82B5B2"/>
<path fill-rule="evenodd" clip-rule="evenodd" d="M144.845 143.156C144.845 143.156 149.436 145.974 153.205 147.775C153.381 147.846 153.48 148.038 153.437 148.226C153.395 148.416 153.221 148.543 153.033 148.526C150.779 148.368 147.266 147.962 144.908 146.909C144.744 145.776 144.712 144.529 144.845 143.156ZM162.216 135.04C152.126 128.083 148.863 124.203 149.341 124.627C149.341 124.627 149.494 124.105 149.859 123.338C151.393 124.897 155.463 128.739 162.961 133.909C163.895 134.552 167.058 136.628 169.188 140.246C169.739 142.117 170.112 143.957 170.102 145.498C170.098 146.323 170.038 147.151 169.915 147.969C169.892 147.901 169.882 147.827 169.882 147.751C169.946 140.042 163.555 135.961 162.216 135.04ZM166.629 133.529C165.646 132.351 163.86 130.176 162.814 128.901C162.748 128.82 162.748 128.702 162.814 128.622C162.881 128.541 162.995 128.522 163.083 128.578L164.718 129.6C164.758 129.674 165.612 131.269 166.629 133.529Z" fill="#044743"/>
<path d="M178.785 150.53C182.121 150.53 184.826 147.764 184.826 144.352C184.826 140.939 182.121 138.173 178.785 138.173C175.448 138.173 172.743 140.939 172.743 144.352C172.743 147.764 175.448 150.53 178.785 150.53Z" fill="#A8CFCC"/>
<path fill-rule="evenodd" clip-rule="evenodd" d="M180.642 138.472C183.069 139.273 184.826 141.605 184.826 144.352C184.826 147.762 182.12 150.531 178.784 150.531C176.598 150.531 174.68 149.34 173.62 147.557L177.481 145.581C177.409 145.902 177.433 146.259 177.572 146.597C177.898 147.394 178.734 147.797 179.436 147.496C180.14 147.195 180.446 146.304 180.12 145.506C179.956 145.104 179.66 144.803 179.319 144.641L181.496 143.526L180.642 138.472Z" fill="black"/>
<path fill-rule="evenodd" clip-rule="evenodd" d="M152.143 161.499C152.143 161.499 153.421 161.17 155.198 160.712C161.569 159.07 168.23 161.955 171.514 167.774C173.95 172.096 173.451 177.518 170.271 181.298C168.982 182.83 167.968 184.036 167.968 184.036C167.968 184.036 169.991 183.994 172.345 183.944C176.295 183.86 179.769 186.601 180.693 190.53C180.772 190.89 180.859 191.249 180.951 191.606C181.645 194.275 183.207 196.622 185.379 198.26C186.19 198.874 186.943 199.644 187.111 200.463C187.111 200.463 149.78 200.416 132.223 200.392C128.701 200.388 125.486 198.348 123.916 195.125C122.348 191.901 122.694 188.048 124.813 185.171C124.813 185.171 111.328 171.046 111.89 154.597C112.195 145.663 120.143 140.525 126 143.168C135.957 147.657 144.083 154.501 152.143 161.499Z" fill="url(#paint3_linear_52_1314)"/>
<path fill-rule="evenodd" clip-rule="evenodd" d="M133.586 173.423C133.586 173.423 126.973 167.041 122.22 162.453C122.026 162.266 121.723 162.262 121.525 162.446C121.327 162.63 121.301 162.938 121.463 163.153C125.519 168.521 131.207 176.048 131.207 176.048L133.586 173.423Z" fill="#044743"/>
<path fill-rule="evenodd" clip-rule="evenodd" d="M167.968 184.036L169.803 183.998C168.911 184.79 167.681 185.831 166.146 187.003L166.193 200.436L164.861 200.435L164.818 187.994C160.967 190.794 155.59 194.111 149.068 196.605C148.722 196.737 148.339 196.559 148.209 196.206C148.081 195.854 148.256 195.461 148.601 195.33C158.351 191.601 165.484 185.999 168.68 183.189L167.968 184.036ZM151.297 160.766C151.579 161.009 151.86 161.255 152.143 161.499L153.973 161.029C151.081 162.265 131.545 171.124 123.329 188.181C123.639 187.112 124.135 186.091 124.813 185.172C124.813 185.172 124.493 184.836 123.955 184.209C131.742 171.251 145.604 163.525 151.297 160.766Z" fill="#82B5B2"/>
<path fill-rule="evenodd" clip-rule="evenodd" d="M4.26958 194.242C2.90242 193.269 6.86985 185.02 13.1239 175.834C19.3779 166.649 25.5655 159.981 26.9326 160.955C26.9397 160.959 26.9465 160.964 26.9532 160.97L33.7153 166.08C35.0826 167.053 31.1152 175.302 24.8611 184.489C18.6071 193.674 12.4195 200.342 11.0522 199.368C11.0453 199.364 11.0385 199.358 11.0317 199.353L4.26958 194.242Z" fill="#FFCD80"/>
<path fill-rule="evenodd" clip-rule="evenodd" d="M26.0831 160.982L26.1137 160.97L26.1439 160.959L26.1737 160.948L26.1759 160.947L26.2032 160.937H26.206L26.2322 160.928L26.2357 160.926L26.2609 160.918H26.265L26.2891 160.91L26.2938 160.909L26.3171 160.903L26.3223 160.902L26.3446 160.895L26.3503 160.894L26.3718 160.89L26.3779 160.888L26.3984 160.883L26.4051 160.881L26.4248 160.877L26.4317 160.876L26.4506 160.873L26.4581 160.872L26.4762 160.869H26.484L26.5013 160.866L26.5094 160.865L26.5261 160.864H26.5343L26.5503 160.862L26.559 160.861H26.5742H26.5831L26.5978 160.86H26.6068H26.6208L26.63 160.861H26.6435H26.6528L26.6657 160.862L26.6752 160.864L26.6876 160.865L26.6972 160.866L26.709 160.868L26.7186 160.869L26.7299 160.871L26.7397 160.873L26.7506 160.875L26.7603 160.877L26.7707 160.88L26.7804 160.883L26.7904 160.886L26.8098 160.892L26.8285 160.899L26.8471 160.906L26.8651 160.914L26.8739 160.918L26.8826 160.924L26.8912 160.928L26.8997 160.933L26.9081 160.939L26.9164 160.943L26.9246 160.948L26.9326 160.955L27.5207 161.399L27.5213 161.406C27.5741 161.946 27.461 162.72 27.1751 163.682C26.9298 164.509 26.5562 165.489 26.0686 166.593L32.6163 171.196C32.4719 171.517 32.3171 171.849 32.152 172.193L25.6106 167.593C25.4666 167.898 25.3151 168.212 25.1562 168.532L31.5177 173.468C31.3551 173.786 31.1855 174.11 31.0087 174.442L24.6581 169.513C23.5801 171.594 22.2323 173.93 20.6749 176.389L26.7915 181.571C26.5968 181.874 26.3993 182.179 26.1988 182.486L20.0873 177.307C19.5831 178.087 19.0585 178.877 18.5159 179.674C16.6896 182.356 14.8579 184.819 13.1401 186.936L19.3251 191.99L19.3319 191.995C19.1023 192.281 18.875 192.561 18.6502 192.833L12.4659 187.781C12.462 187.779 12.4582 187.775 12.4544 187.772C12.0832 188.217 11.7183 188.645 11.3612 189.054L17.4346 194.248C17.4391 194.252 17.4435 194.255 17.4478 194.259C17.2054 194.539 16.9673 194.809 16.7339 195.07L10.6442 189.862C9.20468 191.457 7.91134 192.709 6.85545 193.528C6.07193 194.137 5.40128 194.514 4.88746 194.651C4.86787 194.657 4.84841 194.661 4.82909 194.666L4.26957 194.242L4.26171 194.237L4.25384 194.231L4.24612 194.225L4.23852 194.219L4.23106 194.212L4.22373 194.206L4.21653 194.199L4.20934 194.192L4.19548 194.177L4.18216 194.162L4.16936 194.147L4.15684 194.131L4.15084 194.121L4.14498 194.113L4.13912 194.105L4.13352 194.095L4.12779 194.086L4.12259 194.077L4.117 194.068L4.11207 194.058L4.1066 194.047L4.10207 194.039L4.09674 194.027L4.09261 194.019L4.08728 194.007L4.08355 193.998L4.07849 193.985L4.07489 193.977L4.06996 193.963L4.06689 193.955L4.0621 193.94L4.05916 193.932L4.05463 193.917L4.05197 193.908L4.04757 193.892L4.04531 193.884L4.04118 193.868L4.03904 193.859L4.03505 193.842L4.03331 193.835L4.02958 193.816L4.02798 193.809L4.02452 193.79L4.02319 193.782L4.01985 193.763L4.01879 193.754L4.01572 193.734L4.01492 193.727L4.01213 193.705L4.01146 193.7L4.00893 193.675L4.0084 193.67L4.00626 193.645L4.00586 193.641L4.00413 193.615L4.00373 193.611L4.0024 193.584L4.00213 193.58L4.00107 193.551L4.00093 193.549L4.00027 193.52V193.517L4 193.485L4.00013 193.452L4.0008 193.418C4.01892 192.694 4.2204 192.685 4.216 193.113C4.21467 193.246 4.22373 193.365 4.24825 193.464C4.26344 193.527 4.27476 193.583 4.31527 193.611C4.35578 193.64 4.41055 193.632 4.47318 193.625C4.57365 193.613 4.68491 193.581 4.80737 193.534C5.1974 193.381 5.66845 193.081 6.21118 192.66C8.95044 190.534 13.3043 185.421 17.641 179.051C21.9778 172.682 25.1562 166.73 26.1551 163.366C26.3531 162.699 26.4641 162.143 26.4685 161.717C26.4698 161.583 26.4608 161.465 26.4363 161.364C26.4211 161.301 26.4097 161.247 26.3692 161.218C26.3287 161.188 26.274 161.198 26.2113 161.204C26.1107 161.215 25.9996 161.248 25.8771 161.296C25.4871 161.448 25.4262 161.251 26.0831 160.982Z" fill="#FEA424"/>
<path fill-rule="evenodd" clip-rule="evenodd" d="M196.919 182.967C195.933 182.798 195.18 181.92 195.18 180.864V176.598C195.18 175.421 196.114 174.464 197.265 174.464H227.07C228.221 174.464 229.156 175.421 229.156 176.598V180.864C229.156 181.92 228.403 182.798 227.417 182.967C228.403 183.137 229.156 184.014 229.156 185.071V189.336C229.156 190.33 228.49 191.166 227.589 191.402C228.467 191.654 229.111 192.479 229.111 193.456V197.723C229.111 198.899 228.177 199.855 227.026 199.855H197.221C196.07 199.855 195.136 198.899 195.136 197.723V193.456C195.136 192.462 195.801 191.627 196.701 191.39C195.823 191.138 195.18 190.313 195.18 189.336V185.071C195.18 184.014 195.933 183.137 196.919 182.967Z" fill="#FFC367"/>
<path fill-rule="evenodd" clip-rule="evenodd" d="M224.37 181.919H228.883C228.578 182.465 228.045 182.859 227.417 182.967C227.481 182.977 227.545 182.992 227.608 183.009H226.952V190.321H228.92C228.65 190.85 228.167 191.251 227.589 191.402C227.6 191.405 227.609 191.408 227.618 191.412H224.142V199.855H223.076V191.412H212.958V199.855H211.892V191.412H203.267V199.855H202.201V191.412H201.115V199.855H200.049V191.412H196.627C196.652 191.404 196.676 191.397 196.701 191.39C196.143 191.229 195.678 190.838 195.416 190.321H197.565V183.009H196.728C196.789 182.992 196.853 182.977 196.919 182.967C196.291 182.859 195.758 182.465 195.453 181.919H201.276V174.464H202.342V181.919H204.623V174.464H205.689V181.919H211.055V174.464H212.121V181.919H223.304V174.464H224.37V181.919ZM198.631 183.009V190.321H208.228V183.009H198.631ZM209.294 183.009V190.321H215.413V183.009H209.294ZM216.479 183.009V190.321H218.056V183.009H216.479ZM219.122 183.009V190.321H225.886V183.009H219.122Z" fill="#FEA424"/>
<path fill-rule="evenodd" clip-rule="evenodd" d="M233.833 163.31C239.494 161.368 247.009 166.217 251.08 174.667C255.219 183.26 254.302 192.469 249.124 195.739L249.149 195.793L243.643 198.718C243.48 198.816 243.314 198.908 243.143 198.994C243.071 199.03 242.998 199.065 242.926 199.099L242.705 199.216L242.697 199.201C236.986 201.634 229.133 196.75 224.937 188.04C220.632 179.102 221.798 169.497 227.54 166.604C227.54 166.604 232.511 163.897 232.874 163.715C233.155 163.573 233.441 163.45 233.733 163.345L233.826 163.296L233.833 163.31Z" fill="#FFCD80"/>
<path d="M247.493 193.128C252.191 190.989 253.287 183.169 249.94 175.661C246.593 168.153 240.071 163.8 235.372 165.938C230.673 168.077 229.578 175.897 232.925 183.405C236.272 190.913 242.794 195.266 247.493 193.128Z" fill="#FEA424"/>
<path fill-rule="evenodd" clip-rule="evenodd" d="M236.345 162.885L236.426 162.883C235.661 163.039 234.917 163.292 234.204 163.652C231.79 164.867 230.099 167.102 229.191 169.883C227.796 174.152 228.235 179.69 230.75 184.91C233.264 190.131 237.29 193.863 241.451 195.332C244.159 196.289 246.922 196.281 249.336 195.065C250.05 194.704 250.7 194.256 251.286 193.73L251.266 193.754L251.248 193.78L251.229 193.805L251.197 193.846L251.18 193.869L251.157 193.896L251.141 193.917L251.137 193.922L251.107 193.959L251.089 193.981L251.063 194.013L251.053 194.026L251.043 194.036L251.015 194.072L250.999 194.091L250.963 194.133L250.949 194.148L250.92 194.182L250.905 194.2L250.868 194.242L250.855 194.257L250.824 194.291L250.811 194.306L250.772 194.35L250.759 194.365L250.726 194.4L250.715 194.411L250.675 194.455L250.662 194.468L250.623 194.509L250.619 194.515L250.615 194.518L250.575 194.558L250.562 194.572L250.52 194.616L250.511 194.624L250.474 194.661L250.462 194.673L250.419 194.715L250.408 194.726L250.37 194.761L250.36 194.772L250.315 194.815L250.304 194.824L250.264 194.862L250.256 194.869L250.211 194.91L250.199 194.921L250.154 194.963L250.151 194.965L250.105 195.005L250.093 195.016L250.046 195.057L250.039 195.063L249.997 195.099L249.985 195.108L249.938 195.149L249.927 195.155L249.886 195.191L249.877 195.199L249.827 195.237L249.817 195.247L249.771 195.282L249.766 195.286L249.715 195.326L249.705 195.334L249.654 195.372L249.602 195.41L249.59 195.42L249.54 195.456L249.534 195.461L249.488 195.495L249.476 195.503L249.425 195.538L249.416 195.545L249.369 195.576L249.36 195.583L249.308 195.619L249.297 195.627L249.249 195.658L249.242 195.662L249.189 195.696L249.177 195.705L249.124 195.739L249.149 195.793L246.925 196.975C246.02 197.12 245.092 197.145 244.154 197.054C244.15 197.056 244.144 197.059 244.139 197.062L239.269 199.82C238.678 199.8 238.079 199.722 237.475 199.59L242.46 196.766C242.007 196.657 241.554 196.522 241.102 196.363C239.53 195.807 237.973 194.948 236.501 193.821L231.886 196.852C231.591 196.626 231.296 196.387 231.004 196.137L235.619 193.106C235.276 192.811 234.939 192.502 234.609 192.179L229.882 195.095C229.624 194.838 229.368 194.571 229.117 194.295L233.836 191.382C232.281 189.697 230.898 187.683 229.794 185.392C229.533 184.85 229.293 184.305 229.075 183.757L224.178 186.319C224.042 185.978 223.913 185.638 223.791 185.297L228.691 182.734C227.942 180.594 227.512 178.444 227.385 176.379L222.376 178.524C222.352 178.131 222.34 177.743 222.339 177.359L227.345 175.214C227.333 173.542 227.525 171.939 227.91 170.46L222.954 172.642C223.094 172.156 223.258 171.687 223.446 171.239L228.226 169.134L228.275 169.253C228.864 167.567 229.725 166.076 230.84 164.868C230.84 164.868 232.39 163.968 232.828 163.738L232.874 163.715C233.155 163.573 233.441 163.45 233.733 163.345L233.826 163.296L233.833 163.31L233.893 163.289L233.902 163.287L233.961 163.268L233.972 163.264L234.03 163.246L234.037 163.243L234.094 163.225L234.102 163.223L234.161 163.206L234.172 163.202L234.23 163.186L234.24 163.183L234.298 163.167L234.302 163.165L234.362 163.149L234.373 163.146L234.433 163.131L234.442 163.129L234.503 163.114H234.505L234.567 163.099L234.575 163.096L234.635 163.082L234.646 163.081L234.707 163.067L234.713 163.066L234.774 163.052H234.778L234.841 163.039L234.85 163.037L234.913 163.025L234.919 163.024L234.983 163.011L235.048 163L235.055 162.999L235.119 162.99L235.126 162.988L235.191 162.977L235.258 162.968H235.262L235.326 162.958L235.334 162.957L235.398 162.949H235.403L235.468 162.941H235.47L235.535 162.934L235.543 162.932L235.605 162.926L235.615 162.924L235.68 162.919L235.743 162.913L235.753 162.912L235.815 162.908L235.828 162.906L235.888 162.902L235.9 162.901L235.939 162.9L235.996 162.896L236.017 162.894L236.086 162.891H236.094L236.176 162.887L236.258 162.886H236.26L236.341 162.885H236.345Z" fill="#FEA424"/>
<path d="M239.539 185.031C241.428 185.761 243.243 185.793 245.03 185.169C247.134 184.37 247.764 183.142 246.991 181.461C246.323 180.103 245.214 179.542 243.664 179.776C242.954 179.914 242.198 180.07 241.362 180.225C239.848 180.476 238.488 180.278 237.319 179.647C236.114 179 235.196 178.006 234.54 176.674C233.759 175.086 233.583 173.639 234.06 172.317C234.491 171.011 235.549 170.05 237.197 169.417C239.248 168.728 241.315 168.728 243.386 169.391L243.143 172.169C241.496 171.714 239.914 171.718 238.445 172.225C237.694 172.499 237.158 172.937 236.871 173.555C236.562 174.182 236.617 174.948 237.023 175.827C237.287 176.365 237.696 176.759 238.275 177.062C238.853 177.364 239.583 177.43 240.468 177.318C240.938 177.236 241.603 177.114 242.427 176.934C244.065 176.607 245.482 176.814 246.702 177.547C247.887 178.262 248.805 179.256 249.448 180.562C251.094 184.071 250.052 186.537 246.369 187.944C243.979 188.817 241.493 188.729 238.944 187.696L239.539 185.031Z" fill="#FFCD80"/>
<path fill-rule="evenodd" clip-rule="evenodd" d="M235.98 167.22L245.238 190.631L248.107 189.732L238.417 166.456L235.98 167.22Z" fill="#FFCD80"/>
</g>
<defs>
<filter id="filter0_d_52_1314" x="0" y="0" width="257.678" height="208.463" filterUnits="userSpaceOnUse" color-interpolation-filters="sRGB">
<feFlood flood-opacity="0" result="BackgroundImageFix"/>
<feColorMatrix in="SourceAlpha" type="matrix" values="0 0 0 0 0 0 0 0 0 0 0 0 0 0 0 0 0 0 127 0" result="hardAlpha"/>
<feOffset dy="4"/>
<feGaussianBlur stdDeviation="2"/>
<feComposite in2="hardAlpha" operator="out"/>
<feColorMatrix type="matrix" values="0 0 0 0 0 0 0 0 0 0 0 0 0 0 0 0 0 0 0.25 0"/>
<feBlend mode="normal" in2="BackgroundImageFix" result="effect1_dropShadow_52_1314"/>
<feBlend mode="normal" in="SourceGraphic" in2="effect1_dropShadow_52_1314" result="shape"/>
</filter>
<linearGradient id="paint0_linear_52_1314" x1="83.2232" y1="96.1259" x2="57.8577" y2="25.0658" gradientUnits="userSpaceOnUse">
<stop stop-color="#E86135"/>
<stop offset="0.59" stop-color="#EC6D47"/>
<stop offset="0.8" stop-color="#F6886F"/>
<stop offset="1" stop-color="#FFA396"/>
</linearGradient>
<linearGradient id="paint1_linear_52_1314" x1="47.4988" y1="30.1369" x2="0.0713284" y2="-0.741424" gradientUnits="userSpaceOnUse">
<stop stop-color="#E86135"/>
<stop offset="1" stop-color="#FFA396"/>
</linearGradient>
<linearGradient id="paint2_linear_52_1314" x1="179.03" y1="52.11" x2="190.084" y2="111.611" gradientUnits="userSpaceOnUse">
<stop stop-color="#FFB000"/>
<stop offset="1" stop-color="#FD9500"/>
</linearGradient>
<linearGradient id="paint3_linear_52_1314" x1="138.215" y1="183.622" x2="104.175" y2="127.991" gradientUnits="userSpaceOnUse">
<stop stop-color="#A8CFCC"/>
<stop offset="0.58" stop-color="#B9D5D1"/>
<stop offset="0.8" stop-color="#DDE3DC"/>
<stop offset="1" stop-color="#FFF0E6"/>
</linearGradient>
</defs>
</svg>
