<svg width="289" height="52" viewBox="0 0 289 52" fill="none" xmlns="http://www.w3.org/2000/svg">
<path d="M62.4611 17.2229V11.1999C62.4283 8.20147 61.2076 5.3384 59.0668 3.23876C56.9259 1.13911 54.0396 -0.0256747 51.0411 -7.48887e-05H11.9411C8.94223 -0.0256791 6.05565 1.13901 3.91429 3.23857C1.77293 5.33813 0.551582 8.20119 0.518066 11.1999V39.9859C0.551845 42.9846 1.77328 45.8475 3.91458 47.947C6.05589 50.0465 8.94231 51.2113 11.9411 51.1859H51.0411C54.0398 51.2113 56.9262 50.0465 59.0675 47.947C61.2088 45.8475 62.4303 42.9846 62.4641 39.9859V33.9659H58.6951V39.9859C58.6729 41.9955 57.8547 43.9143 56.4199 45.3216C54.9851 46.7289 53.0507 47.5097 51.0411 47.4929H11.9411C9.93138 47.5097 7.99706 46.7289 6.56224 45.3216C5.12742 43.9143 4.30923 41.9955 4.28706 39.9859V11.1999C4.30923 9.19031 5.12742 7.2715 6.56224 5.86424C7.99706 4.45698 9.93138 3.67612 11.9411 3.69292H51.0411C53.0507 3.67612 54.9851 4.45698 56.4199 5.86424C57.8547 7.2715 58.6729 9.19031 58.6951 11.1999V17.2229H62.4611Z" fill="#192CD1"/>
<path d="M65.2342 22.229H46.6632C46.3582 22.2298 46.0659 22.3513 45.8502 22.567C45.6345 22.7826 45.513 23.075 45.5122 23.38V27.814C45.513 28.119 45.6345 28.4113 45.8502 28.627C46.0659 28.8426 46.3582 28.9642 46.6632 28.965H65.2342C65.5395 28.965 65.8322 28.8437 66.0481 28.6279C66.264 28.412 66.3852 28.1192 66.3852 27.814V23.38C66.3852 23.0747 66.264 22.782 66.0481 22.5661C65.8322 22.3502 65.5395 22.229 65.2342 22.229ZM49.4402 27.841C48.9964 27.841 48.5625 27.7093 48.1935 27.4628C47.8245 27.2162 47.5368 26.8657 47.367 26.4557C47.1972 26.0457 47.1527 25.5945 47.2393 25.1592C47.3259 24.7239 47.5396 24.3241 47.8535 24.0103C48.1673 23.6964 48.5671 23.4827 49.0024 23.3961C49.4377 23.3095 49.8889 23.354 50.299 23.5238C50.709 23.6936 51.0595 23.9813 51.306 24.3503C51.5526 24.7193 51.6842 25.1532 51.6842 25.597C51.6845 25.8917 51.6266 26.1837 51.5139 26.4561C51.4012 26.7284 51.236 26.9759 51.0275 27.1843C50.8191 27.3928 50.5716 27.558 50.2993 27.6707C50.0269 27.7834 49.735 27.8413 49.4402 27.841Z" fill="#192CD1"/>
<path d="M82.6613 37V13.2H86.4013L94.0173 31.424L101.599 13.2H105.339V37H101.599V21.258L95.4793 37H92.5213L86.4013 21.088V37H82.6613ZM116.878 37.408C114.408 37.408 112.492 36.626 111.132 35.062C109.772 33.498 109.092 31.5033 109.092 29.078C109.092 26.6753 109.806 24.692 111.234 23.128C112.662 21.5413 114.578 20.748 116.98 20.748C118.046 20.748 119.02 20.9747 119.904 21.428C120.788 21.8813 121.468 22.5047 121.944 23.298V21.156H125.65V37H121.944V34.858C121.491 35.6287 120.777 36.252 119.802 36.728C118.85 37.1813 117.876 37.408 116.878 37.408ZM117.422 34.11C118.941 34.11 120.097 33.634 120.89 32.682C121.706 31.73 122.114 30.5287 122.114 29.078C122.114 27.6273 121.706 26.426 120.89 25.474C120.097 24.522 118.941 24.046 117.422 24.046C115.994 24.046 114.861 24.522 114.022 25.474C113.206 26.4033 112.798 27.6047 112.798 29.078C112.798 30.5513 113.206 31.764 114.022 32.716C114.861 33.6453 115.994 34.11 117.422 34.11ZM130.403 37V21.156H134.109V24.216C134.381 23.1507 134.914 22.346 135.707 21.802C136.501 21.2353 137.373 20.952 138.325 20.952C138.937 20.952 139.425 20.9973 139.787 21.088V24.488C139.402 24.4427 138.915 24.42 138.325 24.42C137.011 24.42 135.979 24.9073 135.231 25.882C134.483 26.834 134.109 28.2053 134.109 29.996V37H130.403ZM148.787 37.408C146.316 37.408 144.401 36.626 143.041 35.062C141.681 33.498 141.001 31.5033 141.001 29.078C141.001 26.6753 141.715 24.692 143.143 23.128C144.571 21.5413 146.486 20.748 148.889 20.748C149.954 20.748 150.929 20.9747 151.813 21.428C152.697 21.8813 153.377 22.5047 153.853 23.298V21.156H157.559V37H153.853V34.858C153.399 35.6287 152.685 36.252 151.711 36.728C150.759 37.1813 149.784 37.408 148.787 37.408ZM149.331 34.11C150.849 34.11 152.005 33.634 152.799 32.682C153.615 31.73 154.023 30.5287 154.023 29.078C154.023 27.6273 153.615 26.426 152.799 25.474C152.005 24.522 150.849 24.046 149.331 24.046C147.903 24.046 146.769 24.522 145.931 25.474C145.115 26.4033 144.707 27.6047 144.707 29.078C144.707 30.5513 145.115 31.764 145.931 32.716C146.769 33.6453 147.903 34.11 149.331 34.11ZM167.854 37.408C165.859 37.408 164.238 36.898 162.992 35.878C161.745 34.858 161.122 33.6113 161.122 32.138H164.828C164.828 32.818 165.122 33.3733 165.712 33.804C166.324 34.2347 167.106 34.45 168.058 34.45C168.76 34.45 169.316 34.28 169.724 33.94C170.132 33.6 170.336 33.1467 170.336 32.58C170.336 31.6733 169.939 31.118 169.146 30.914L165.066 29.792C162.776 29.1573 161.632 27.6953 161.632 25.406C161.632 24.0913 162.198 22.992 163.332 22.108C164.465 21.2013 165.927 20.748 167.718 20.748C169.735 20.748 171.276 21.2013 172.342 22.108C173.43 23.0147 173.974 24.2047 173.974 25.678H170.336C170.336 25.0207 170.086 24.5107 169.588 24.148C169.112 23.7627 168.443 23.57 167.582 23.57C166.924 23.57 166.38 23.7287 165.95 24.046C165.519 24.3407 165.304 24.726 165.304 25.202C165.304 26.0633 165.757 26.63 166.664 26.902L170.438 27.99C171.526 28.3073 172.41 28.8513 173.09 29.622C173.77 30.37 174.11 31.2427 174.11 32.24C174.11 33.7813 173.554 35.028 172.444 35.98C171.356 36.932 169.826 37.408 167.854 37.408ZM191.111 35.062C189.615 36.626 187.586 37.408 185.025 37.408C182.463 37.408 180.423 36.626 178.905 35.062C177.409 33.4753 176.661 31.4807 176.661 29.078C176.661 26.6753 177.409 24.692 178.905 23.128C180.423 21.5413 182.463 20.748 185.025 20.748C187.586 20.748 189.615 21.5413 191.111 23.128C192.629 24.692 193.389 26.6753 193.389 29.078C193.389 31.4807 192.629 33.4753 191.111 35.062ZM181.591 32.716C182.429 33.6453 183.574 34.11 185.025 34.11C186.475 34.11 187.609 33.6453 188.425 32.716C189.263 31.7867 189.683 30.574 189.683 29.078C189.683 27.582 189.263 26.3693 188.425 25.44C187.609 24.5107 186.475 24.046 185.025 24.046C183.574 24.046 182.429 24.5107 181.591 25.44C180.775 26.3693 180.367 27.582 180.367 29.078C180.367 30.574 180.775 31.7867 181.591 32.716ZM204.532 16.294C204.192 16.294 203.886 16.3167 203.614 16.362C203.365 16.4073 203.082 16.5093 202.764 16.668C202.47 16.804 202.243 17.0533 202.084 17.416C201.926 17.7787 201.846 18.232 201.846 18.776V21.156H205.994V24.25H201.846V37H198.14V24.25H194.91V21.156H198.14V18.844C198.14 17.6427 198.333 16.634 198.718 15.818C199.104 14.9793 199.602 14.3787 200.214 14.016C200.849 13.6307 201.427 13.37 201.948 13.234C202.47 13.0753 202.991 12.996 203.512 12.996C204.555 12.996 205.382 13.098 205.994 13.302V16.43C205.881 16.43 205.654 16.4073 205.314 16.362C204.997 16.3167 204.736 16.294 204.532 16.294ZM216.568 33.872C217.316 33.872 217.939 33.8267 218.438 33.736V37C217.667 37.136 216.749 37.204 215.684 37.204C215.072 37.204 214.539 37.1587 214.086 37.068C213.632 36.9773 213.1 36.7733 212.488 36.456C211.876 36.116 211.4 35.538 211.06 34.722C210.72 33.906 210.55 32.8747 210.55 31.628V24.25H207.864V21.156H210.55V16.362H214.256V21.156H217.894V24.25H214.256V30.778C214.256 32.0473 214.437 32.886 214.8 33.294C215.162 33.6793 215.752 33.872 216.568 33.872ZM239.287 13.2C241.667 13.2 243.616 13.982 245.135 15.546C246.676 17.11 247.447 19.1047 247.447 21.53C247.447 23.9553 246.676 25.95 245.135 27.514C243.616 29.078 241.667 29.86 239.287 29.86H234.425V37H230.515V13.2H239.287ZM239.049 26.358C240.341 26.358 241.406 25.9047 242.245 24.998C243.106 24.0687 243.537 22.9127 243.537 21.53C243.537 20.1473 243.106 19.0027 242.245 18.096C241.406 17.1667 240.341 16.702 239.049 16.702H234.425V26.358H239.049ZM256.763 37.408C254.292 37.408 252.377 36.626 251.017 35.062C249.657 33.498 248.977 31.5033 248.977 29.078C248.977 26.6753 249.691 24.692 251.119 23.128C252.547 21.5413 254.462 20.748 256.865 20.748C257.93 20.748 258.905 20.9747 259.789 21.428C260.673 21.8813 261.353 22.5047 261.829 23.298V21.156H265.535V37H261.829V34.858C261.376 35.6287 260.662 36.252 259.687 36.728C258.735 37.1813 257.76 37.408 256.763 37.408ZM257.307 34.11C258.826 34.11 259.982 33.634 260.775 32.682C261.591 31.73 261.999 30.5287 261.999 29.078C261.999 27.6273 261.591 26.426 260.775 25.474C259.982 24.522 258.826 24.046 257.307 24.046C255.879 24.046 254.746 24.522 253.907 25.474C253.091 26.4033 252.683 27.6047 252.683 29.078C252.683 30.5513 253.091 31.764 253.907 32.716C254.746 33.6453 255.879 34.11 257.307 34.11ZM281.066 21.156H284.772V37.068C284.772 39.4933 284.081 41.3747 282.698 42.712C281.361 43.936 279.57 44.548 277.326 44.548C274.992 44.548 273.178 44.004 271.886 42.916C270.753 41.9187 270.164 40.5473 270.118 38.802H273.858C273.949 39.7087 274.244 40.3773 274.742 40.808C275.264 41.2613 276.102 41.488 277.258 41.488C278.437 41.488 279.366 41.1027 280.046 40.332C280.726 39.584 281.066 38.4053 281.066 36.796V34.79C280.046 36.5353 278.346 37.408 275.966 37.408C274.085 37.408 272.634 36.8073 271.614 35.606C270.617 34.382 270.118 32.784 270.118 30.812V21.156H273.824V30.03C273.824 32.7727 274.969 34.144 277.258 34.144C278.505 34.144 279.446 33.702 280.08 32.818C280.738 31.934 281.066 30.778 281.066 29.35V21.156Z" fill="black"/>
</svg>
